{"glyphs":{"0":{"ha":449,"x_min":1,"x_max":450,"o":"m 446 429 q 450 374 450 401 q 343 96 450 218 q 174 3 257 -3 q 64 61 108 7 q 1 264 1 139 q 53 515 1 382 q 125 632 86 600 q 257 679 183 679 q 343 650 308 679 q 408 574 386 613 q 434 503 428 540 q 446 429 440 465 m 331 442 q 326 459 331 442 q 317 510 322 476 q 281 564 307 547 q 251 575 261 575 q 225 560 240 575 q 119 283 119 450 q 167 113 119 185 q 183 101 174 101 q 232 140 196 101 q 339 374 339 256 q 331 442 339 408 z "},"1":{"ha":289,"x_min":72,"x_max":228,"o":"m 225 618 q 217 343 228 521 q 206 68 206 150 q 208 -39 206 11 q 183 -74 211 -74 q 90 -36 99 -74 q 72 146 72 44 q 85 360 72 217 q 97 574 97 504 q 83 735 97 663 q 91 757 82 744 q 111 774 100 769 q 195 754 168 793 q 225 618 222 715 z "},"2":{"ha":483,"x_min":1,"x_max":447,"o":"m 443 -15 q 378 -47 432 -40 q 267 -53 332 -53 q 160 -53 182 -51 q 108 -56 118 -56 q 1 4 25 -56 q 115 231 35 85 q 229 456 197 382 q 269 543 249 499 q 292 632 292 597 q 263 690 292 690 q 223 652 246 690 q 181 579 200 614 q 178 567 178 574 q 185 540 178 560 q 193 510 193 521 q 182 484 193 496 q 156 472 171 472 q 81 525 136 472 q 63 569 63 542 q 88 649 63 603 q 271 793 149 761 q 300 797 286 797 q 383 739 364 797 q 396 654 396 699 q 363 496 396 586 q 297 346 329 421 q 226 210 279 304 q 160 71 179 128 q 285 69 182 69 q 408 57 361 69 q 447 3 447 46 q 443 -15 447 -7 z "},"3":{"ha":468,"x_min":1,"x_max":436,"o":"m 399 756 q 400 735 400 744 q 329 589 400 669 q 215 453 225 468 q 303 439 258 446 q 381 388 356 425 q 436 225 436 304 q 404 90 436 165 q 335 -50 397 75 q 167 -278 288 -144 q 81 -329 121 -329 q 56 -322 68 -329 q 22 -303 39 -314 q 4 -278 6 -293 q 51 -206 1 -236 q 135 -147 124 -161 q 265 32 235 -25 q 315 236 315 126 q 313 294 315 264 q 268 346 308 342 q 103 318 228 350 q 61 354 96 329 q 35 390 35 374 q 47 421 35 404 q 250 686 118 507 q 182 678 226 689 q 111 665 131 665 q 43 697 69 665 q 33 725 35 707 q 33 756 33 740 q 213 797 46 758 q 304 808 263 808 q 399 756 390 808 z "},"4":{"ha":521,"x_min":0,"x_max":528,"o":"m 519 97 q 482 75 511 78 q 436 74 460 75 q 401 53 406 72 q 386 -128 389 -14 q 382 -308 383 -282 q 347 -340 381 -335 q 285 -312 294 -340 q 272 -233 272 -276 q 282 -136 272 -201 q 292 -36 292 -71 q 285 28 292 -3 q 258 29 272 29 q 169 17 229 29 q 82 4 110 4 q 32 13 56 4 q 0 47 0 25 q 31 114 0 58 q 167 399 81 206 q 306 689 253 593 q 337 757 319 722 q 393 792 354 792 q 443 760 440 792 q 446 697 446 728 q 424 466 446 617 q 403 236 403 315 q 406 169 403 201 q 515 135 493 169 q 519 97 528 115 m 292 390 q 224 261 257 326 q 171 128 186 186 q 231 140 194 129 q 285 156 275 154 q 288 276 285 194 q 292 390 292 357 z "},"5":{"ha":476,"x_min":26,"x_max":508,"o":"m 503 726 q 360 665 457 688 q 207 617 246 638 q 144 396 156 483 q 372 211 351 335 q 382 89 382 150 q 235 -324 382 -161 q 186 -351 210 -351 q 165 -344 175 -351 q 128 -326 146 -335 q 103 -289 106 -312 q 128 -239 99 -253 q 189 -189 172 -217 q 271 92 271 -60 q 238 244 271 178 q 169 282 221 278 q 86 290 94 288 q 28 344 26 313 q 144 779 32 500 q 185 800 153 800 q 238 768 229 800 q 269 761 251 761 q 349 780 294 761 q 431 799 403 799 q 493 775 467 799 q 503 726 508 753 z "},"6":{"ha":443,"x_min":22,"x_max":479,"o":"m 471 906 q 479 885 479 899 q 460 850 479 857 q 374 796 413 835 q 167 410 253 675 q 217 426 185 410 q 269 443 250 443 q 294 438 282 443 q 415 300 397 396 q 419 257 419 279 q 365 106 419 179 q 246 -4 319 42 q 203 -17 225 -17 q 115 17 175 -17 q 22 210 22 69 q 33 313 22 258 q 147 636 75 506 q 244 808 235 793 q 388 936 308 901 q 410 942 400 942 q 471 906 429 942 m 306 272 q 294 317 306 293 q 264 342 282 342 q 226 326 253 342 q 186 310 200 310 q 157 326 169 310 q 132 240 132 296 q 140 161 132 211 q 174 92 151 92 q 188 96 181 92 q 271 169 236 119 q 306 272 306 219 z "},"7":{"ha":510,"x_min":14,"x_max":528,"o":"m 525 274 q 528 260 528 267 q 483 211 528 240 q 414 188 457 194 q 350 174 364 179 q 322 -37 339 126 q 281 -239 308 -168 q 208 -225 239 -256 q 197 -122 197 -179 q 210 21 197 -65 q 232 164 221 93 q 210 165 221 165 q 143 154 183 165 q 78 136 86 138 q 42 168 71 147 q 14 201 14 189 q 29 225 14 213 q 138 267 67 256 q 246 288 225 279 q 267 463 254 335 q 292 635 276 574 q 258 638 276 638 q 172 622 222 638 q 85 590 128 606 q 47 624 82 594 q 22 663 22 643 q 26 681 22 671 q 132 721 65 707 q 243 744 231 742 q 303 761 256 747 q 367 772 343 772 q 422 742 406 772 q 388 518 418 685 q 364 290 360 378 q 419 297 381 288 q 472 307 457 307 q 525 274 508 307 z "},"8":{"ha":500,"x_min":24,"x_max":490,"o":"m 465 877 q 477 860 465 877 q 490 803 490 843 q 467 713 490 765 q 421 625 443 669 q 349 490 378 538 q 414 264 383 404 q 428 174 428 199 q 414 106 428 138 q 396 54 414 104 q 372 13 386 26 q 258 -64 342 -18 q 185 -82 225 -82 q 100 -60 140 -82 q 25 57 28 -19 q 57 194 24 119 q 121 318 89 256 q 186 415 129 336 q 231 515 228 472 q 215 644 233 561 q 193 776 194 738 q 224 872 192 835 q 264 893 242 893 q 288 890 271 893 q 315 886 306 886 q 358 900 338 886 q 396 911 374 911 q 465 877 439 911 m 346 744 q 313 774 332 774 q 296 761 300 774 q 296 703 290 740 q 317 651 301 663 q 340 693 321 660 q 351 724 351 711 q 346 744 351 733 m 310 122 q 325 182 325 149 q 315 242 325 206 q 300 301 308 272 q 276 363 296 321 q 183 228 229 296 q 126 90 126 144 q 151 19 126 53 q 181 4 163 4 q 250 46 210 4 q 310 122 285 79 z "},"9":{"ha":483,"x_min":25,"x_max":463,"o":"m 453 406 q 297 -142 463 153 q 229 -217 264 -201 q 158 -233 194 -233 q 69 -207 110 -233 q 32 -151 25 -178 q 51 -139 35 -139 q 74 -142 58 -139 q 97 -146 90 -146 q 203 -81 158 -149 q 260 44 229 -42 q 311 194 301 163 q 336 356 336 282 q 332 419 336 388 q 290 354 299 386 q 246 335 276 353 q 194 317 215 317 q 63 371 103 319 q 26 476 26 415 q 90 661 26 556 q 260 776 160 776 q 288 774 274 776 q 331 746 308 760 q 378 732 354 732 q 394 733 386 732 q 449 578 439 678 q 453 406 450 492 m 314 643 q 314 657 315 649 q 311 671 311 668 q 297 667 306 667 q 278 672 290 667 q 260 676 265 676 q 246 657 249 676 q 149 517 201 632 q 140 472 140 499 q 156 410 140 435 q 228 457 189 418 q 314 643 311 560 z "}," ":{"ha":347,"x_min":0,"x_max":0,"o":""},"!":{"ha":371,"x_min":68,"x_max":346,"o":"m 344 819 q 274 469 336 722 q 224 110 219 250 q 209 87 224 97 q 182 79 194 76 q 107 149 111 93 q 106 207 106 178 q 147 526 106 338 q 217 843 211 806 q 238 867 219 860 q 272 868 256 874 q 319 854 296 861 q 344 819 346 843 m 210 -28 q 204 -66 213 -47 q 184 -85 196 -85 q 167 -92 172 -86 q 156 -96 161 -97 q 72 -24 82 -68 q 99 16 68 -4 q 142 35 129 36 q 185 15 164 32 q 210 -28 207 -1 z "},"\"":{"ha":576,"x_min":53,"x_max":510,"o":"m 503 900 q 510 847 510 874 q 482 724 510 797 q 435 594 440 615 q 339 472 401 472 q 317 476 328 472 q 296 525 288 486 q 353 708 304 564 q 396 900 389 821 q 451 925 399 931 q 483 919 475 922 q 503 900 499 914 m 268 900 q 275 847 275 874 q 246 724 275 799 q 199 594 204 617 q 104 472 165 472 q 82 476 93 472 q 61 525 53 486 q 118 708 69 564 q 161 900 154 821 q 217 925 164 931 q 249 919 240 922 q 268 900 264 914 z "},"#":{"ha":347,"x_min":0,"x_max":0,"o":""},"$":{"ha":347,"x_min":0,"x_max":0,"o":""},"%":{"ha":347,"x_min":0,"x_max":0,"o":""},"&":{"ha":607,"x_min":44,"x_max":661,"o":"m 658 492 q 597 435 650 454 q 511 399 524 408 q 486 265 515 342 q 439 140 440 143 q 604 -1 508 88 q 613 -26 614 -8 q 604 -56 613 -44 q 568 -62 588 -62 q 483 -32 524 -62 q 390 40 454 -7 q 319 -67 386 35 q 232 -167 276 -133 q 186 -181 214 -181 q 125 -167 156 -181 q 76 -58 76 -146 q 81 -1 76 -33 q 111 144 89 58 q 149 289 129 217 q 44 611 44 444 q 56 713 44 663 q 107 817 69 772 q 204 878 149 867 q 300 818 261 889 q 329 692 329 765 q 321 592 329 657 q 293 449 315 550 q 269 306 274 356 q 296 263 268 285 q 342 229 318 246 q 400 371 385 275 q 376 392 403 389 q 342 413 346 396 q 340 424 340 418 q 379 478 340 461 q 485 514 432 496 q 589 535 547 535 q 631 529 610 535 q 651 512 640 521 q 658 492 661 503 m 204 732 q 200 736 203 735 q 174 688 185 736 q 165 611 165 651 q 190 468 165 542 q 204 565 192 494 q 215 661 215 626 q 204 732 215 700 m 288 96 q 297 119 297 108 q 275 151 297 135 q 242 178 246 172 q 204 92 222 135 q 183 6 183 40 q 197 -46 183 -24 q 208 -54 203 -54 q 249 6 224 -54 q 288 96 285 90 z "},"'":{"ha":328,"x_min":53,"x_max":275,"o":"m 268 900 q 275 847 275 874 q 246 724 275 799 q 199 594 204 617 q 104 472 165 472 q 82 476 93 472 q 61 525 53 486 q 118 708 69 564 q 161 900 154 821 q 217 925 164 931 q 249 919 240 922 q 268 900 264 914 z "},"(":{"ha":458,"x_min":60,"x_max":413,"o":"m 410 863 q 186 271 219 497 q 174 111 174 181 q 265 -164 174 -75 q 313 -183 275 -174 q 347 -211 342 -193 q 328 -246 357 -242 q 301 -247 314 -247 q 172 -192 228 -247 q 60 124 60 -79 q 114 457 60 258 q 193 674 121 483 q 240 800 217 736 q 321 897 272 869 q 350 904 332 904 q 393 894 374 904 q 413 872 413 885 q 410 863 413 867 z "},")":{"ha":444,"x_min":14,"x_max":371,"o":"m 354 189 q 117 -262 326 -49 q 93 -271 108 -271 q 26 -244 64 -271 q 17 -226 18 -239 q 21 -204 14 -212 q 253 381 254 42 q 117 881 253 661 q 114 889 114 885 q 135 921 114 907 q 174 935 156 935 q 210 919 194 935 q 371 432 371 761 q 354 189 371 329 z "},"*":{"ha":347,"x_min":0,"x_max":0,"o":""},"+":{"ha":347,"x_min":0,"x_max":0,"o":""},",":{"ha":342,"x_min":38,"x_max":278,"o":"m 264 147 q 219 -62 224 -47 q 153 -262 192 -181 q 119 -279 144 -279 q 66 -265 94 -279 q 38 -219 38 -251 q 49 -168 38 -200 q 67 -121 58 -144 q 111 39 103 8 q 140 203 133 132 q 167 244 143 236 q 193 250 179 250 q 257 228 228 250 q 264 147 278 214 z "},"-":{"ha":636,"x_min":31,"x_max":599,"o":"m 590 368 q 585 333 588 351 q 571 314 582 315 q 454 311 532 315 q 296 294 401 307 q 81 260 256 293 q 57 269 68 257 q 50 356 31 301 q 54 369 53 363 q 64 374 57 372 q 263 413 163 393 q 464 425 340 425 q 499 428 476 425 q 533 432 522 432 q 581 418 563 432 q 590 368 599 404 z "},".":{"ha":367,"x_min":147,"x_max":293,"o":"m 281 122 q 276 55 293 72 q 225 40 258 38 q 172 65 197 42 q 147 115 147 89 q 161 147 147 132 q 190 160 175 161 q 243 156 217 158 q 281 122 274 149 z "},"/":{"ha":604,"x_min":-107,"x_max":713,"o":"m 710 904 q 700 863 713 878 q 267 278 440 526 q 111 36 215 194 q 4 -149 78 -25 q -18 -161 -4 -161 q -42 -156 -26 -161 q -64 -149 -58 -150 q -93 -135 -79 -147 q -106 -111 -107 -122 q -69 -11 -101 -65 q -10 82 -39 35 q 288 525 93 267 q 604 949 446 738 q 635 963 614 963 q 710 904 704 963 z "},":":{"ha":281,"x_min":69,"x_max":231,"o":"m 218 483 q 213 417 231 435 q 164 401 194 399 q 111 426 136 403 q 86 476 86 450 q 100 508 86 493 q 129 522 114 524 q 182 518 178 518 q 218 483 211 510 m 201 129 q 196 63 214 81 q 147 47 178 44 q 94 72 119 49 q 69 122 69 96 q 83 153 69 139 q 113 167 97 168 q 165 163 165 163 q 201 129 194 156 z "},";":{"ha":419,"x_min":100,"x_max":364,"o":"m 293 485 q 288 417 306 435 q 238 401 269 399 q 185 427 210 403 q 161 476 161 451 q 175 508 161 493 q 203 522 189 524 q 256 518 229 521 q 293 485 286 511 m 339 214 q 351 207 339 214 q 364 172 364 200 q 349 117 364 151 q 328 65 329 71 q 208 -251 272 -128 q 174 -272 197 -272 q 153 -265 163 -272 q 118 -249 136 -258 q 101 -228 100 -240 q 160 -14 111 -146 q 228 196 215 135 q 269 224 233 219 q 339 214 314 228 z "},"<":{"ha":426,"x_min":22,"x_max":388,"o":"m 381 631 q 367 550 388 572 q 142 350 251 422 q 275 200 158 319 q 375 57 375 97 q 358 27 375 42 q 322 11 342 13 q 257 40 286 8 q 213 97 235 68 q 108 213 161 156 q 26 336 53 279 q 22 356 22 344 q 51 419 22 393 q 328 643 250 601 q 358 653 346 653 q 381 631 378 653 z "},"=":{"ha":636,"x_min":31,"x_max":599,"o":"m 590 486 q 585 451 588 469 q 571 432 582 433 q 454 429 532 433 q 296 413 401 425 q 81 378 256 411 q 57 388 68 375 q 50 474 31 419 q 54 488 53 481 q 64 492 57 490 q 263 531 163 511 q 464 543 340 543 q 499 547 476 543 q 533 550 522 550 q 581 536 563 550 q 590 486 599 522 m 590 222 q 585 188 588 206 q 571 168 582 169 q 454 164 532 168 q 296 147 401 160 q 189 133 238 138 q 81 114 153 131 q 57 124 68 111 q 50 208 32 154 q 54 222 53 215 q 64 226 57 225 q 263 265 163 246 q 464 279 342 279 q 499 283 476 279 q 533 286 522 286 q 581 272 563 286 q 590 222 599 258 z "},">":{"ha":426,"x_min":19,"x_max":385,"o":"m 381 336 q 299 213 354 279 q 196 97 247 156 q 151 40 174 68 q 85 11 121 8 q 49 27 65 13 q 32 57 32 42 q 132 200 32 97 q 267 350 250 318 q 42 550 157 422 q 26 631 19 574 q 49 653 29 653 q 81 643 63 653 q 356 419 156 603 q 385 356 385 393 q 381 336 385 344 z "},"?":{"ha":489,"x_min":22,"x_max":454,"o":"m 444 713 q 454 636 454 674 q 375 403 454 531 q 235 189 304 296 q 201 119 218 154 q 144 76 179 81 q 76 100 74 68 q 205 386 86 207 q 338 668 324 565 q 329 706 340 689 q 297 724 318 724 q 251 696 279 724 q 189 617 232 669 q 164 539 179 604 q 110 499 154 494 q 44 554 51 504 q 43 576 43 565 q 96 704 43 642 q 200 799 125 739 q 289 833 246 835 q 388 799 343 831 q 444 713 432 767 m 165 -76 q 172 -99 172 -87 q 150 -139 172 -119 q 107 -158 128 -158 q 38 -100 61 -158 q 44 -44 22 -62 q 110 -42 61 -32 q 165 -76 150 -50 z "},"@":{"ha":707,"x_min":32,"x_max":656,"o":"m 639 199 q 518 -83 606 13 q 422 -135 472 -135 q 342 -102 378 -135 q 292 -25 307 -69 q 235 -89 263 -57 q 164 -124 199 -124 q 140 -121 153 -124 q 78 -101 88 -106 q 40 -53 43 -85 q 88 132 32 32 q 208 296 124 194 q 324 368 268 368 q 371 351 349 368 q 401 335 386 343 q 415 306 417 326 q 403 188 414 281 q 392 57 392 100 q 415 -21 392 -10 q 497 88 446 -36 q 553 296 547 206 q 556 360 556 331 q 518 550 556 472 q 411 643 476 639 q 348 631 379 646 q 288 604 317 617 q 206 531 260 592 q 128 476 158 476 q 89 503 89 476 q 108 547 89 521 q 388 749 253 749 q 581 626 486 749 q 656 367 656 531 q 639 199 656 290 m 294 196 l 294 210 q 215 151 271 215 q 160 42 160 88 q 183 7 160 7 q 258 75 217 7 q 294 196 300 143 z "},"A":{"ha":550,"x_min":-6,"x_max":547,"o":"m 539 67 q 547 28 547 44 q 524 -21 547 0 q 492 -40 500 -42 q 406 69 424 -28 q 360 246 386 175 q 265 238 313 242 q 181 204 211 231 q 140 51 165 161 q 94 -103 117 -50 q 47 -117 83 -128 q -1 -75 1 -101 q 29 67 -6 -22 q 75 211 71 168 q 57 239 76 224 q 38 263 38 254 q 44 277 38 269 q 73 290 50 285 q 99 304 96 294 q 178 563 124 374 q 260 814 224 726 q 294 833 268 833 q 329 821 314 833 q 379 721 368 788 q 394 607 388 664 q 539 67 464 279 m 336 332 q 318 447 332 383 q 292 558 304 503 q 219 328 250 443 q 336 332 242 332 z "},"B":{"ha":533,"x_min":11,"x_max":524,"o":"m 515 604 q 424 468 497 529 q 282 369 353 418 q 310 338 286 349 q 357 318 335 328 q 472 140 472 243 q 418 -6 472 61 q 294 -107 376 -57 q 161 -185 228 -146 q 125 -194 144 -194 q 61 -157 79 -194 q 67 75 64 -40 q 82 304 69 214 q 53 349 53 324 q 63 372 53 361 q 92 394 74 382 q 99 783 108 606 q 13 842 33 796 q 17 858 11 847 q 24 876 24 869 q 94 900 56 900 q 222 882 122 900 q 329 844 274 874 q 506 693 479 767 q 515 604 524 640 m 385 674 q 301 753 378 725 q 267 771 290 757 q 239 782 250 782 q 226 779 233 782 q 225 729 225 756 q 231 607 225 693 q 233 483 235 528 q 263 498 243 483 q 285 514 282 513 q 358 579 326 533 q 385 674 390 625 m 343 129 q 346 158 346 144 q 319 232 346 200 q 229 267 249 267 q 208 263 218 267 q 210 232 210 249 q 202 142 210 203 q 194 51 194 82 q 206 -29 194 7 q 258 12 222 -10 q 307 50 293 33 q 343 129 332 79 z "},"C":{"ha":360,"x_min":22,"x_max":419,"o":"m 419 838 q 369 790 419 800 q 289 761 304 778 q 133 338 133 597 q 172 107 133 215 q 218 -10 204 18 q 303 -107 253 -78 q 344 -125 324 -117 q 367 -160 367 -137 q 352 -200 367 -182 q 321 -214 338 -218 q 265 -196 303 -211 q 121 -31 199 -157 q 81 35 101 1 q 51 100 61 69 q 28 279 44 122 q 22 374 22 328 q 165 792 22 619 q 339 892 249 892 q 410 868 378 892 q 419 838 419 861 z "},"D":{"ha":486,"x_min":25,"x_max":460,"o":"m 442 307 q 415 243 428 275 q 379 183 399 206 q 293 76 336 129 q 200 -12 242 13 q 169 -47 186 -29 q 136 -65 153 -65 q 117 -61 128 -65 q 92 -51 106 -57 q 74 -33 79 -46 q 69 92 69 25 q 75 294 69 160 q 81 497 81 429 q 74 663 81 588 q 43 694 72 664 q 25 728 25 713 q 28 742 25 735 q 58 761 35 758 q 94 765 76 764 q 339 635 211 740 q 393 576 372 607 q 460 392 460 478 q 442 307 460 347 m 342 456 q 193 610 329 543 q 188 118 183 378 q 344 417 344 275 q 342 456 344 436 z "},"E":{"ha":508,"x_min":6,"x_max":526,"o":"m 517 694 q 365 646 465 674 q 214 597 265 618 q 196 436 201 561 q 247 428 218 428 q 313 435 268 428 q 378 442 357 442 q 444 425 417 442 q 464 389 464 397 q 454 374 464 379 q 435 354 451 372 q 407 343 424 342 q 300 335 378 336 q 196 318 235 333 q 169 156 169 215 q 181 92 169 115 q 407 53 246 46 q 431 63 418 53 q 451 74 443 74 q 503 15 490 82 q 495 -26 507 -7 q 461 -46 483 -44 q 169 -19 293 -51 q 99 24 131 -10 q 63 99 67 57 q 63 315 50 219 q 28 367 24 342 q 49 390 29 379 q 72 411 69 400 q 83 543 75 422 q 7 601 6 558 q 56 665 8 642 q 144 701 100 683 q 274 749 196 728 q 410 783 342 767 q 426 785 417 785 q 514 756 464 785 q 521 735 515 750 q 526 713 526 719 q 517 694 526 701 z "},"F":{"ha":531,"x_min":33,"x_max":656,"o":"m 656 882 q 638 831 656 854 q 593 803 621 808 q 563 809 582 800 q 532 817 543 818 q 382 774 471 811 q 235 717 269 726 q 229 539 229 629 q 235 358 229 449 q 258 356 246 356 q 358 378 286 356 q 463 393 426 397 q 490 369 493 390 q 421 286 482 315 q 307 249 364 268 q 235 235 285 246 q 232 172 232 207 q 235 71 232 139 q 239 -31 239 3 q 201 -219 239 -150 q 176 -235 193 -235 q 142 -219 160 -235 q 118 -186 124 -204 q 104 -86 104 -143 q 114 49 104 -67 q 111 183 121 132 q 83 213 108 201 q 43 235 51 226 q 46 290 39 244 q 74 301 63 288 q 97 315 86 315 q 108 314 103 315 q 122 467 122 382 q 111 682 122 496 q 59 715 85 689 q 33 765 33 740 q 83 807 33 800 q 335 876 151 817 q 593 931 496 929 q 637 917 618 931 q 656 882 656 904 z "},"G":{"ha":594,"x_min":-24,"x_max":546,"o":"m 540 347 q 492 118 503 254 q 479 -118 485 0 q 433 -153 476 -153 q 410 -149 421 -153 q 350 -56 350 -124 q 356 3 350 -36 q 361 61 361 43 q 375 182 367 101 q 158 47 279 92 q 125 42 142 42 q 7 114 61 42 q -24 214 -24 154 q 0 338 -24 267 q 235 778 74 563 q 378 885 315 885 q 440 843 433 885 q 417 793 446 808 q 365 764 368 767 q 151 431 249 635 q 92 204 92 304 q 93 168 92 186 q 101 155 96 167 q 117 147 107 143 q 393 338 208 183 q 425 401 407 349 q 475 440 439 440 q 497 443 464 440 q 519 438 514 446 q 546 374 546 399 q 540 347 546 361 z "},"H":{"ha":564,"x_min":28,"x_max":514,"o":"m 514 776 q 474 385 511 653 q 439 -6 439 131 q 442 -87 439 -49 q 433 -106 442 -97 q 414 -115 425 -115 q 363 -108 375 -115 q 310 7 310 -78 q 312 59 310 24 q 314 111 314 94 q 321 196 314 139 q 328 283 328 253 q 274 289 308 282 q 225 296 240 296 q 190 290 207 296 q 151 -33 157 181 q 60 -29 104 -53 q 28 38 28 -12 q 30 67 28 49 q 32 90 32 86 q 64 388 36 165 q 86 683 88 574 q 108 703 86 699 q 132 711 129 707 q 172 694 140 701 q 204 669 199 689 q 215 592 215 635 q 206 495 215 561 q 197 394 197 429 q 239 379 214 382 q 286 378 256 376 q 335 381 326 381 q 396 758 369 526 q 431 807 401 807 q 514 776 504 814 z "},"I":{"ha":236,"x_min":38,"x_max":200,"o":"m 197 703 q 200 619 200 663 q 181 335 200 525 q 161 47 161 144 q 163 -24 161 11 q 108 -61 150 -62 q 43 -10 49 -58 q 38 93 38 39 q 60 375 38 188 q 83 656 83 563 q 81 726 83 692 q 128 753 94 753 q 181 738 154 753 q 189 742 186 742 q 193 728 193 742 q 193 708 192 711 q 197 703 194 704 z "},"J":{"ha":321,"x_min":-135,"x_max":265,"o":"m 257 368 q 8 -169 233 -57 q -29 -176 -7 -176 q -94 -158 -67 -176 q -135 -103 -135 -131 q -100 -72 -135 -72 q -78 -76 -93 -72 q -56 -81 -62 -81 q -19 -62 -35 -81 q 142 456 142 115 q 132 661 142 542 q 115 796 128 706 q 124 824 113 811 q 153 833 135 836 q 201 829 169 835 q 243 760 235 810 q 250 671 247 715 q 257 368 265 526 z "},"K":{"ha":521,"x_min":22,"x_max":525,"o":"m 517 76 q 525 57 525 69 q 514 15 525 49 q 504 17 508 17 q 483 10 496 17 q 463 3 469 3 q 447 8 456 3 q 158 183 354 67 q 165 36 163 132 q 168 3 165 25 q 171 -29 171 -19 q 142 -75 171 -62 q 118 -81 133 -81 q 97 -71 101 -81 q 56 -22 61 -58 q 39 213 39 78 q 42 358 39 261 q 44 503 44 454 q 25 758 44 650 q 44 781 22 775 q 79 786 61 783 q 117 773 97 781 q 138 749 136 765 q 156 449 158 560 q 286 585 213 500 q 410 728 349 656 q 446 735 426 735 q 503 697 500 735 q 350 493 464 611 q 179 297 217 356 q 353 194 265 246 q 517 76 450 133 z "},"L":{"ha":440,"x_min":31,"x_max":457,"o":"m 440 161 q 278 46 438 160 q 113 -53 185 -21 q 96 -57 104 -57 q 60 -32 76 -57 q 33 3 35 1 q 49 343 31 125 q 69 678 69 575 q 64 811 69 749 q 110 829 82 829 q 171 790 163 829 q 161 449 175 676 q 150 108 147 222 q 251 167 189 125 q 350 229 319 214 q 374 232 357 229 q 400 235 392 235 q 440 213 428 235 q 440 161 457 182 z "},"M":{"ha":753,"x_min":-6,"x_max":728,"o":"m 722 -24 q 682 -54 728 -51 q 619 -28 651 -56 q 578 49 593 -4 q 561 186 564 97 q 551 324 558 286 q 492 138 533 261 q 461 60 467 69 q 406 21 439 17 q 303 96 339 36 q 258 219 279 135 q 221 344 236 313 q 93 -89 161 54 q 35 -86 83 -110 q -6 -31 -6 -67 q 24 58 -6 -18 q 121 379 36 92 q 182 731 150 479 q 196 760 185 733 q 221 779 203 779 q 286 761 268 779 q 299 631 286 721 q 313 496 313 542 q 336 339 325 418 q 392 193 351 250 q 561 779 525 564 q 603 801 567 801 q 661 768 654 801 q 671 653 671 718 q 668 561 671 632 q 668 468 667 504 q 722 -24 681 175 z "},"N":{"ha":660,"x_min":58,"x_max":628,"o":"m 628 842 q 590 468 608 656 q 567 97 567 246 q 569 1 567 49 q 553 -37 571 -21 q 514 -54 536 -54 q 442 4 471 -54 q 221 549 353 178 q 214 557 218 557 q 201 538 204 557 q 178 119 178 339 q 183 -96 178 14 q 160 -151 185 -136 q 139 -161 150 -161 q 114 -153 129 -161 q 88 -140 93 -143 q 65 -107 69 -135 q 63 -61 64 -85 q 58 101 58 17 q 75 469 58 249 q 104 842 101 806 q 156 872 106 872 q 225 838 179 875 q 335 563 269 753 q 449 286 397 381 q 514 844 469 471 q 554 872 518 872 q 583 868 567 872 q 610 861 606 863 q 628 842 624 856 z "},"O":{"ha":533,"x_min":29,"x_max":525,"o":"m 511 300 q 279 81 429 115 q 243 76 261 76 q 83 163 164 76 q 29 314 29 221 q 90 535 29 417 q 154 621 117 585 q 236 664 197 664 q 278 647 258 664 q 382 603 297 631 q 476 528 449 581 q 525 368 525 435 q 511 300 525 331 m 400 386 q 346 507 390 488 q 333 510 339 510 q 292 482 317 510 q 249 444 264 450 q 221 453 239 440 q 197 465 203 465 q 190 463 193 465 q 142 333 142 421 q 169 232 142 274 q 235 175 208 175 q 353 251 296 175 q 400 386 407 324 z "},"P":{"ha":485,"x_min":46,"x_max":457,"o":"m 435 481 q 344 329 382 367 q 281 265 286 271 q 200 226 240 233 q 194 161 194 199 q 199 81 194 135 q 203 3 203 28 q 158 -139 203 -92 q 119 -118 158 -139 q 93 -87 96 -106 q 79 114 79 3 q 88 333 79 188 q 96 554 96 479 q 83 753 96 663 q 63 767 72 749 q 46 788 53 785 q 69 832 53 832 q 156 829 90 839 q 428 671 336 800 q 457 576 457 629 q 435 481 457 531 m 344 588 q 297 675 351 643 q 197 715 294 675 q 207 357 213 460 q 344 588 331 474 z "},"Q":{"ha":551,"x_min":18,"x_max":599,"o":"m 594 -114 q 599 -131 599 -122 q 581 -162 599 -149 q 544 -175 563 -175 q 497 -150 521 -175 q 460 -107 479 -129 q 397 -28 429 -78 q 343 58 369 15 q 279 8 311 33 q 204 -18 240 -18 q 115 15 160 -18 q 50 90 69 47 q 18 251 18 161 q 99 600 18 390 q 140 683 121 658 q 222 738 171 725 q 278 758 235 740 q 333 774 314 774 q 360 768 349 774 q 415 731 379 760 q 479 561 464 668 q 485 375 488 497 q 449 267 483 336 q 415 158 415 197 q 490 17 417 97 q 594 -114 581 -83 m 350 307 q 383 474 383 378 q 347 672 383 579 q 303 660 335 676 q 240 626 272 644 q 171 521 190 601 q 147 382 160 451 q 129 239 129 300 q 171 86 129 146 q 185 79 175 79 q 222 104 206 79 q 256 139 224 107 q 276 181 276 160 q 268 210 276 194 q 219 308 221 304 q 199 414 196 368 q 240 447 201 444 q 306 421 276 450 q 330 364 321 406 q 350 307 339 322 z "},"R":{"ha":494,"x_min":35,"x_max":610,"o":"m 606 -10 q 610 -22 610 -15 q 543 -71 610 -54 q 360 104 469 -14 q 178 288 238 236 q 163 99 174 251 q 138 -85 156 -17 q 120 -92 135 -85 q 96 -96 106 -99 q 35 -11 35 -82 q 40 44 35 10 q 47 94 46 85 q 54 286 53 175 l 54 438 q 75 756 54 626 q 238 835 89 842 q 368 760 313 832 q 419 615 419 693 q 371 485 419 550 q 268 393 329 426 q 243 363 243 379 q 272 319 243 344 q 317 283 294 301 q 469 144 318 282 q 606 -10 565 58 m 313 614 q 315 658 317 639 q 291 711 311 688 q 226 735 271 735 q 185 714 193 735 q 178 635 178 679 q 182 542 178 617 q 182 449 185 485 q 313 614 297 535 z "},"S":{"ha":385,"x_min":31,"x_max":343,"o":"m 335 840 q 294 792 335 813 q 271 790 283 786 q 250 796 251 796 q 233 788 242 796 q 158 604 158 713 q 171 529 158 564 q 276 314 176 514 q 343 88 343 181 q 306 -60 343 11 q 243 -121 293 -83 q 171 -150 203 -150 q 147 -146 158 -150 q 106 -100 106 -128 q 126 -60 106 -83 q 153 -51 132 -53 q 181 -35 174 -50 q 210 90 210 26 q 120 352 210 181 q 31 626 31 524 q 64 778 31 711 q 171 888 101 854 q 233 903 203 903 q 321 871 292 903 q 335 840 335 856 z "},"T":{"ha":514,"x_min":-90,"x_max":739,"o":"m 739 865 q 692 807 726 815 q 378 749 601 785 q 350 172 350 403 q 353 0 350 85 q 350 -40 354 -26 q 322 -61 343 -62 q 256 -27 282 -60 q 226 46 229 6 q 224 154 224 97 q 236 444 224 246 q 247 735 249 635 q 143 728 210 738 q 38 717 67 717 q -74 753 -31 717 q -90 790 -90 789 q -81 811 -90 800 q 101 839 -36 826 q 282 883 222 851 q 393 868 331 868 q 513 883 456 868 q 597 903 529 885 q 681 911 647 915 q 701 890 706 911 q 739 865 739 890 z "},"U":{"ha":540,"x_min":24,"x_max":539,"o":"m 539 757 q 483 497 529 660 q 411 233 421 279 q 294 -22 381 93 q 169 -94 240 -96 q 76 -15 107 -93 q 24 292 24 115 q 43 553 24 393 q 42 639 42 539 q 108 725 42 725 q 138 717 122 725 q 169 701 154 710 q 165 493 171 631 q 158 281 158 346 q 163 154 158 211 q 188 43 165 125 q 279 217 246 108 q 324 414 290 253 q 383 606 350 536 q 400 679 393 625 q 417 754 407 733 q 469 788 432 788 q 539 757 518 788 z "},"V":{"ha":643,"x_min":15,"x_max":663,"o":"m 656 797 q 501 418 601 696 q 432 147 472 336 q 357 -126 393 -33 q 328 -140 344 -140 q 278 -119 308 -140 q 151 306 224 10 q 15 735 83 588 q 46 769 33 769 q 68 776 57 776 q 146 735 90 776 q 242 456 196 621 q 315 171 278 313 q 418 511 367 340 q 543 842 479 703 q 615 865 564 878 q 629 855 621 864 q 650 845 638 846 q 663 825 663 844 q 656 797 663 811 z "},"W":{"ha":693,"x_min":-4,"x_max":672,"o":"m 640 715 q 672 671 672 700 q 656 618 672 651 q 633 568 635 574 q 570 256 600 465 q 510 -53 540 46 q 463 -81 501 -81 q 431 -74 444 -81 q 357 29 379 -47 q 331 168 356 36 q 307 317 318 238 q 256 124 288 278 q 190 -46 228 -10 q 151 -49 179 -57 q 96 1 110 -43 q 79 79 88 40 q 40 390 54 179 q 0 699 25 601 q 4 731 -4 715 q 28 747 13 746 q 50 750 39 750 q 110 715 89 750 q 163 261 132 599 q 188 349 174 285 q 217 443 203 414 q 240 549 229 496 q 310 613 257 613 q 340 608 324 613 q 353 599 342 600 q 365 594 364 597 q 411 413 396 526 q 440 226 435 251 q 486 472 463 350 q 561 706 515 615 q 601 724 571 724 q 640 715 624 724 z "},"X":{"ha":499,"x_min":-28,"x_max":515,"o":"m 511 797 q 332 483 404 635 q 421 321 349 443 q 497 153 481 221 q 474 134 486 151 q 449 118 461 117 q 365 165 397 122 q 319 258 349 188 q 267 346 292 321 q 163 121 218 275 q 63 -101 108 -33 q -24 -78 -12 -108 q -28 -53 -28 -65 q -11 6 -28 -31 q 15 64 13 57 q 208 490 93 292 q 63 690 167 583 q 56 704 56 697 q 97 746 56 731 q 128 751 113 751 q 207 699 168 751 q 267 618 263 622 q 335 739 274 628 q 414 856 376 814 q 483 858 442 864 q 515 814 515 844 q 511 797 515 804 z "},"Y":{"ha":506,"x_min":22,"x_max":492,"o":"m 492 822 q 349 414 453 665 q 192 10 226 121 q 185 -46 185 -12 q 185 -104 186 -92 q 133 -153 181 -153 q 83 -137 110 -156 q 57 -97 56 -118 q 108 135 61 4 q 194 357 151 246 q 26 743 96 621 q 22 757 22 750 q 40 785 22 772 q 74 799 57 799 q 126 783 76 799 q 199 647 161 731 q 261 506 231 576 q 317 671 289 589 q 388 829 349 767 q 426 849 399 849 q 492 822 465 849 z "},"Z":{"ha":486,"x_min":-18,"x_max":533,"o":"m 529 38 q 533 19 533 28 q 519 -9 533 4 q 492 -35 506 -22 q 96 40 319 -22 q 31 63 49 54 q -18 106 -3 78 q -18 133 -17 117 q 178 360 140 314 q 347 606 285 492 q 257 628 307 628 q 172 619 228 628 q 88 610 115 610 q 22 619 51 610 q -18 669 -18 643 q -11 688 -18 679 q 106 719 29 719 q 131 719 114 719 q 156 719 147 719 q 222 726 196 719 q 335 717 278 722 q 438 683 401 708 q 475 621 475 658 q 471 599 475 610 q 326 363 426 489 q 143 147 235 254 q 499 68 350 86 q 529 38 514 68 z "},"[":{"ha":347,"x_min":0,"x_max":0,"o":""},"\\":{"ha":660,"x_min":-68,"x_max":697,"o":"m 697 -114 q 684 -135 697 -125 q 654 -149 671 -146 q 633 -154 649 -149 q 610 -160 618 -160 q 586 -146 594 -160 q 489 46 557 -82 q 347 294 444 129 q -56 903 193 539 q -64 944 -68 921 q 14 999 -54 1003 q 34 996 31 997 q 44 983 38 994 q 339 543 192 764 q 611 85 518 275 q 665 -12 639 36 q 697 -114 696 -68 z "},"]":{"ha":347,"x_min":0,"x_max":0,"o":""},"^":{"ha":347,"x_min":0,"x_max":0,"o":""},"_":{"ha":750,"x_min":13,"x_max":704,"o":"m 696 -76 q 692 -111 694 -93 q 678 -131 689 -129 q 560 -133 639 -129 q 403 -150 481 -144 q 231 -164 257 -161 q 61 -193 149 -172 q 38 -182 49 -196 q 31 -97 13 -151 q 35 -83 33 -90 q 44 -79 38 -81 q 571 -18 381 -18 q 606 -15 583 -18 q 640 -11 629 -11 q 689 -26 669 -11 q 696 -76 704 -39 z "},"`":{"ha":510,"x_min":99,"x_max":447,"o":"m 443 592 q 438 578 447 582 q 415 578 428 575 q 238 703 317 597 q 115 894 176 799 q 113 943 99 919 q 136 957 121 957 q 188 936 142 957 q 232 890 211 925 q 264 829 249 860 q 358 708 286 789 q 443 592 425 635 z "},"a":{"ha":550,"x_min":-6,"x_max":547,"o":"m 539 67 q 547 28 547 44 q 524 -21 547 0 q 492 -40 500 -42 q 406 69 424 -28 q 360 246 386 175 q 265 238 313 242 q 181 204 211 231 q 140 51 165 161 q 94 -103 117 -50 q 47 -117 83 -128 q -1 -75 1 -101 q 29 67 -6 -22 q 75 211 71 168 q 57 239 76 224 q 38 263 38 254 q 44 277 38 269 q 73 290 50 285 q 99 304 96 294 q 178 563 124 374 q 260 814 224 726 q 294 833 268 833 q 329 821 314 833 q 379 721 368 788 q 394 607 388 664 q 539 67 464 279 m 336 332 q 318 447 332 383 q 292 558 304 503 q 219 328 250 443 q 336 332 242 332 z "},"b":{"ha":533,"x_min":11,"x_max":524,"o":"m 515 604 q 424 468 497 529 q 282 369 353 418 q 310 338 286 349 q 357 318 335 328 q 472 140 472 243 q 418 -6 472 61 q 294 -107 376 -57 q 161 -185 228 -146 q 125 -194 144 -194 q 61 -157 79 -194 q 67 75 64 -40 q 82 304 69 214 q 53 349 53 324 q 63 372 53 361 q 92 394 74 382 q 99 783 108 606 q 13 842 33 796 q 17 858 11 847 q 24 876 24 869 q 94 900 56 900 q 142 894 113 900 q 196 886 183 888 q 329 844 263 878 q 506 693 479 767 q 515 604 524 640 m 385 674 q 301 753 378 725 q 267 771 290 757 q 239 782 250 782 q 226 779 233 782 q 225 729 225 756 q 231 607 225 693 q 233 483 235 528 q 263 498 243 483 q 285 514 282 513 q 358 579 326 533 q 385 674 390 625 m 343 129 q 346 158 346 144 q 319 232 346 200 q 229 267 249 267 q 208 263 218 267 q 210 232 210 249 q 202 142 210 203 q 194 51 194 82 q 206 -29 194 7 q 258 12 222 -10 q 307 50 293 33 q 343 129 332 79 z "},"c":{"ha":360,"x_min":22,"x_max":419,"o":"m 419 838 q 369 790 419 800 q 289 761 304 778 q 133 338 133 597 q 172 107 133 215 q 218 -10 204 18 q 303 -107 253 -78 q 344 -125 324 -117 q 367 -160 367 -137 q 352 -200 367 -182 q 321 -214 338 -218 q 265 -196 303 -211 q 121 -31 199 -157 q 81 35 101 1 q 51 100 61 69 q 28 279 44 122 q 22 374 22 328 q 165 792 22 619 q 339 892 249 892 q 410 868 378 892 q 419 838 419 861 z "},"d":{"ha":486,"x_min":25,"x_max":460,"o":"m 442 307 q 415 243 428 275 q 379 183 399 206 q 293 76 336 129 q 200 -12 242 13 q 169 -47 186 -29 q 136 -65 153 -65 q 117 -61 128 -65 q 92 -51 106 -57 q 74 -33 79 -46 q 69 92 69 25 q 75 294 69 160 q 81 497 81 429 q 74 663 81 588 q 43 694 72 664 q 25 728 25 713 q 28 742 25 735 q 58 761 35 758 q 94 765 76 764 q 339 635 211 740 q 393 576 372 607 q 460 392 460 478 q 442 307 460 347 m 342 456 q 193 610 329 543 q 188 118 183 378 q 344 417 344 275 q 342 456 344 436 z "},"e":{"ha":508,"x_min":6,"x_max":526,"o":"m 517 694 q 365 646 465 674 q 214 597 265 618 q 196 436 201 561 q 247 428 218 428 q 313 435 268 428 q 378 442 357 442 q 444 425 417 442 q 464 389 464 397 q 454 374 464 379 q 435 354 451 372 q 407 343 424 342 q 300 335 378 336 q 196 318 235 333 q 169 156 169 215 q 181 92 169 115 q 407 53 246 46 q 431 63 418 53 q 451 74 443 74 q 503 15 490 82 q 495 -26 507 -7 q 461 -46 483 -44 q 169 -19 293 -51 q 99 24 131 -10 q 63 99 67 57 q 63 315 50 219 q 28 367 24 342 q 49 390 29 379 q 72 411 69 400 q 83 543 75 422 q 7 601 6 558 q 56 665 8 642 q 144 701 100 683 q 275 749 197 728 q 410 783 342 767 q 426 785 417 785 q 514 756 464 785 q 521 735 515 750 q 526 713 526 719 q 517 694 526 701 z "},"f":{"ha":531,"x_min":33,"x_max":656,"o":"m 656 882 q 638 831 656 854 q 593 803 621 808 q 563 809 582 800 q 532 817 543 818 q 382 774 471 811 q 235 717 269 726 q 229 539 229 629 q 235 358 229 449 q 258 356 246 356 q 358 378 286 356 q 463 393 426 397 q 490 369 493 390 q 421 286 482 315 q 307 249 364 268 q 235 235 285 246 q 232 172 232 207 q 235 71 232 139 q 239 -31 239 3 q 201 -219 239 -150 q 176 -235 193 -235 q 142 -219 160 -235 q 118 -186 124 -204 q 104 -86 104 -143 q 114 49 104 -67 q 111 183 121 132 q 83 213 108 201 q 43 235 51 226 q 46 290 39 244 q 74 301 63 288 q 97 315 86 315 q 108 314 103 315 q 122 467 122 382 q 111 682 122 496 q 59 715 85 689 q 33 765 33 740 q 83 807 33 800 q 335 876 151 817 q 593 931 496 929 q 637 917 618 931 q 656 882 656 904 z "},"g":{"ha":594,"x_min":-24,"x_max":546,"o":"m 540 347 q 492 118 503 254 q 479 -118 485 0 q 433 -153 476 -153 q 410 -149 421 -153 q 350 -56 350 -124 q 356 3 350 -36 q 361 61 361 43 q 375 182 367 101 q 158 47 279 92 q 125 42 142 42 q 7 114 61 42 q -24 214 -24 154 q 0 338 -24 267 q 235 778 74 563 q 378 885 315 885 q 440 843 433 885 q 417 793 446 808 q 365 764 368 767 q 151 431 249 635 q 92 204 92 304 q 93 168 92 186 q 101 155 96 167 q 117 147 107 143 q 393 338 208 183 q 425 401 407 349 q 475 440 439 440 q 497 443 464 440 q 519 438 514 446 q 546 374 546 399 q 540 347 546 361 z "},"h":{"ha":564,"x_min":28,"x_max":514,"o":"m 514 776 q 474 385 511 653 q 439 -6 439 131 q 442 -87 439 -49 q 433 -106 442 -97 q 414 -115 425 -115 q 363 -108 375 -115 q 310 7 310 -78 q 312 59 310 24 q 314 111 314 94 q 321 196 314 139 q 328 283 328 253 q 274 289 308 282 q 225 296 240 296 q 190 290 207 296 q 151 -33 157 181 q 60 -29 104 -53 q 28 38 28 -12 q 30 67 28 49 q 32 90 32 86 q 64 388 36 165 q 86 683 88 574 q 108 703 86 699 q 132 711 129 707 q 172 694 140 701 q 204 669 199 689 q 215 592 215 635 q 206 495 215 561 q 197 394 197 429 q 239 379 214 382 q 286 378 256 376 q 335 381 326 381 q 396 758 369 526 q 431 807 401 807 q 514 776 504 814 z "},"i":{"ha":236,"x_min":38,"x_max":200,"o":"m 197 703 q 200 619 200 663 q 181 335 200 525 q 161 47 161 144 q 163 -24 161 11 q 108 -61 150 -62 q 43 -10 49 -58 q 38 93 38 39 q 60 375 38 188 q 83 656 83 563 q 81 726 83 692 q 128 753 94 753 q 181 738 154 753 q 189 742 186 742 q 193 728 193 742 q 193 708 192 711 q 197 703 194 704 z "},"j":{"ha":321,"x_min":-135,"x_max":265,"o":"m 257 368 q 8 -169 233 -57 q -29 -176 -7 -176 q -94 -158 -67 -176 q -135 -103 -135 -131 q -100 -72 -135 -72 q -78 -76 -93 -72 q -56 -81 -62 -81 q -19 -62 -35 -81 q 142 456 142 115 q 132 661 142 542 q 115 796 128 706 q 124 824 113 811 q 153 833 135 836 q 201 829 169 835 q 243 760 235 810 q 250 671 247 715 q 257 368 265 526 z "},"k":{"ha":521,"x_min":22,"x_max":525,"o":"m 517 76 q 525 57 525 69 q 514 15 525 49 q 504 17 508 17 q 483 10 496 17 q 463 3 469 3 q 447 8 456 3 q 158 183 354 67 q 165 36 163 132 q 168 3 165 25 q 171 -29 171 -19 q 142 -75 171 -62 q 118 -81 133 -81 q 97 -71 101 -81 q 56 -22 61 -58 q 39 213 39 78 q 42 358 39 261 q 44 503 44 454 q 25 758 44 650 q 44 781 22 775 q 79 786 61 783 q 117 773 97 781 q 138 749 136 765 q 156 449 158 560 q 286 585 213 500 q 410 728 349 656 q 446 735 426 735 q 503 697 500 735 q 350 493 464 611 q 179 297 217 356 q 353 194 265 246 q 517 76 450 133 z "},"l":{"ha":440,"x_min":31,"x_max":457,"o":"m 440 161 q 278 46 438 160 q 113 -53 185 -21 q 96 -57 104 -57 q 60 -32 76 -57 q 33 3 35 1 q 49 343 31 125 q 69 678 69 575 q 64 811 69 749 q 110 829 82 829 q 171 790 163 829 q 161 449 175 676 q 150 108 147 222 q 251 167 189 125 q 350 229 319 214 q 374 232 357 229 q 400 235 392 235 q 440 213 428 235 q 440 161 457 182 z "},"m":{"ha":753,"x_min":-6,"x_max":728,"o":"m 722 -24 q 682 -54 728 -51 q 619 -28 651 -56 q 578 49 593 -4 q 561 186 564 97 q 551 324 558 286 q 492 138 533 261 q 461 60 467 69 q 406 21 439 17 q 303 96 339 36 q 258 219 279 135 q 221 344 236 313 q 93 -89 161 54 q 35 -86 83 -110 q -6 -31 -6 -67 q 24 58 -6 -18 q 121 379 36 92 q 182 731 150 479 q 196 760 185 733 q 221 779 203 779 q 286 761 268 779 q 299 631 286 721 q 313 496 313 542 q 336 339 325 418 q 392 193 351 250 q 561 779 525 564 q 603 801 567 801 q 661 768 654 801 q 671 653 671 718 q 668 563 671 632 q 668 468 667 504 q 722 -24 681 175 z "},"n":{"ha":660,"x_min":58,"x_max":628,"o":"m 628 842 q 590 468 608 656 q 567 97 567 246 q 569 1 567 49 q 553 -37 571 -21 q 514 -54 536 -54 q 442 4 471 -54 q 221 549 353 178 q 214 557 218 557 q 201 538 204 557 q 178 119 178 339 q 183 -96 178 14 q 160 -151 185 -136 q 139 -161 150 -161 q 114 -153 129 -161 q 88 -140 93 -143 q 65 -107 69 -135 q 63 -61 64 -85 q 58 101 58 17 q 75 469 58 249 q 104 842 101 806 q 156 872 106 872 q 225 838 179 875 q 335 563 269 753 q 449 286 397 381 q 514 844 469 471 q 554 872 518 872 q 583 868 567 872 q 610 861 606 863 q 628 842 624 856 z "},"o":{"ha":533,"x_min":29,"x_max":525,"o":"m 511 300 q 279 81 429 115 q 243 76 261 76 q 83 163 164 76 q 29 314 29 221 q 90 535 29 417 q 154 621 117 585 q 236 664 197 664 q 278 647 258 664 q 382 603 297 631 q 476 528 449 581 q 525 368 525 435 q 511 300 525 331 m 400 386 q 346 507 390 488 q 333 510 339 510 q 292 482 317 510 q 249 444 264 450 q 221 453 239 440 q 197 465 203 465 q 190 463 193 465 q 142 333 142 421 q 169 232 142 274 q 235 175 208 175 q 353 251 296 175 q 400 386 407 324 z "},"p":{"ha":485,"x_min":46,"x_max":457,"o":"m 435 481 q 344 329 382 367 q 281 265 286 271 q 200 226 240 233 q 194 161 194 199 q 199 81 194 135 q 203 3 203 28 q 158 -139 203 -92 q 119 -118 158 -139 q 93 -87 96 -106 q 79 114 79 3 q 88 333 79 188 q 96 554 96 479 q 83 753 96 663 q 63 767 72 749 q 46 788 53 785 q 69 832 53 832 q 156 829 90 839 q 428 671 336 800 q 457 576 457 629 q 435 481 457 531 m 344 588 q 297 675 351 643 q 197 715 294 675 q 207 357 213 460 q 344 588 331 474 z "},"q":{"ha":551,"x_min":18,"x_max":599,"o":"m 594 -114 q 599 -131 599 -122 q 581 -162 599 -149 q 544 -175 563 -175 q 497 -150 521 -175 q 460 -107 479 -129 q 397 -28 429 -78 q 343 58 369 15 q 279 8 311 33 q 204 -18 240 -18 q 115 15 160 -18 q 50 90 69 47 q 18 251 18 161 q 99 600 18 390 q 140 683 121 658 q 222 738 171 725 q 278 758 235 740 q 333 774 314 774 q 360 768 349 774 q 415 731 379 760 q 479 561 464 668 q 485 375 488 497 q 449 267 483 336 q 415 158 415 197 q 490 17 417 97 q 594 -114 581 -83 m 350 307 q 383 474 383 378 q 347 672 383 579 q 303 660 335 676 q 240 626 272 644 q 171 521 190 601 q 147 382 160 451 q 129 239 129 300 q 171 86 129 146 q 185 79 175 79 q 222 104 206 79 q 256 139 224 107 q 276 181 276 160 q 268 210 276 194 q 219 308 221 304 q 199 414 196 368 q 240 447 201 444 q 306 421 276 450 q 330 364 321 406 q 350 307 339 322 z "},"r":{"ha":494,"x_min":35,"x_max":610,"o":"m 606 -10 q 610 -22 610 -15 q 543 -71 610 -54 q 360 104 469 -14 q 178 288 238 236 q 163 99 174 251 q 138 -85 156 -17 q 120 -92 135 -85 q 96 -96 106 -99 q 35 -11 35 -82 q 40 44 35 10 q 47 94 46 85 q 54 286 53 175 l 54 438 q 75 756 54 626 q 238 835 89 842 q 368 760 313 832 q 419 615 419 693 q 371 485 419 550 q 268 393 329 426 q 243 363 243 379 q 272 319 243 344 q 317 283 294 301 q 469 144 318 282 q 606 -10 565 58 m 313 614 q 315 658 317 639 q 291 711 311 688 q 226 735 271 735 q 185 714 193 735 q 178 635 178 679 q 182 542 178 617 q 182 449 185 485 q 313 614 297 535 z "},"s":{"ha":385,"x_min":31,"x_max":343,"o":"m 335 840 q 294 792 335 813 q 271 790 283 786 q 250 796 251 796 q 233 788 242 796 q 158 604 158 713 q 171 529 158 564 q 276 314 176 514 q 343 88 343 181 q 306 -60 343 11 q 243 -121 293 -83 q 171 -150 203 -150 q 147 -146 158 -150 q 106 -100 106 -128 q 126 -60 106 -83 q 153 -51 132 -53 q 181 -35 174 -50 q 210 90 210 26 q 120 352 210 181 q 31 626 31 524 q 64 778 31 711 q 171 888 101 854 q 233 903 203 903 q 321 871 292 903 q 335 840 335 856 z "},"t":{"ha":514,"x_min":-90,"x_max":739,"o":"m 739 865 q 692 807 726 815 q 378 749 601 785 q 350 172 350 403 q 353 0 350 85 q 350 -40 354 -26 q 322 -61 343 -62 q 256 -27 282 -60 q 226 46 229 6 q 224 154 224 97 q 236 444 224 246 q 247 735 249 635 q 143 728 210 738 q 38 717 67 717 q -74 753 -31 717 q -90 790 -90 789 q -81 811 -90 800 q 101 839 -36 826 q 282 883 222 851 q 393 868 331 868 q 513 883 456 868 q 597 903 529 885 q 681 911 647 915 q 701 890 706 911 q 739 865 739 890 z "},"u":{"ha":540,"x_min":24,"x_max":539,"o":"m 539 757 q 483 497 529 660 q 411 233 421 279 q 294 -22 381 93 q 169 -94 240 -96 q 76 -15 107 -93 q 24 292 24 115 q 43 553 24 393 q 42 639 42 539 q 108 725 42 725 q 138 717 122 725 q 169 701 154 710 q 165 493 171 631 q 158 281 158 346 q 163 154 158 211 q 188 43 165 125 q 279 217 246 108 q 324 414 290 253 q 383 606 350 536 q 400 679 393 625 q 417 754 407 733 q 469 788 432 788 q 539 757 518 788 z "},"v":{"ha":643,"x_min":15,"x_max":663,"o":"m 656 797 q 501 418 601 696 q 432 147 472 336 q 357 -126 393 -33 q 328 -140 344 -140 q 278 -119 308 -140 q 151 306 224 10 q 15 735 83 588 q 46 769 33 769 q 68 776 57 776 q 146 735 90 776 q 242 456 196 621 q 315 171 278 313 q 418 511 367 340 q 543 842 479 703 q 615 865 564 878 q 629 855 621 864 q 650 845 638 846 q 663 825 663 844 q 656 797 663 811 z "},"w":{"ha":693,"x_min":-4,"x_max":672,"o":"m 640 715 q 672 671 672 700 q 656 618 672 651 q 633 568 635 574 q 570 256 600 465 q 510 -53 540 46 q 463 -81 501 -81 q 431 -74 444 -81 q 357 29 379 -47 q 331 168 356 36 q 307 317 318 238 q 256 124 288 278 q 190 -46 228 -10 q 151 -49 179 -57 q 96 1 110 -43 q 79 79 88 40 q 40 390 54 179 q 0 699 25 601 q 4 731 -4 715 q 28 747 13 746 q 50 750 39 750 q 110 715 89 750 q 163 261 132 599 q 188 349 174 285 q 217 443 203 414 q 240 549 229 496 q 310 613 257 613 q 340 608 324 613 q 353 599 342 600 q 365 594 364 597 q 411 413 396 526 q 440 226 435 251 q 486 472 463 350 q 561 706 515 615 q 601 724 571 724 q 640 715 624 724 z "},"x":{"ha":499,"x_min":-28,"x_max":515,"o":"m 511 797 q 332 483 404 635 q 421 321 349 443 q 497 153 481 221 q 474 134 486 151 q 449 118 461 117 q 365 165 397 122 q 319 258 349 188 q 267 346 292 321 q 163 121 218 275 q 63 -101 108 -33 q -24 -78 -12 -108 q -28 -53 -28 -65 q -11 6 -28 -31 q 15 64 13 57 q 208 490 93 292 q 63 690 167 583 q 56 704 56 697 q 97 746 56 731 q 128 751 113 751 q 207 699 168 751 q 267 618 263 622 q 335 739 274 628 q 414 856 376 814 q 483 858 442 864 q 515 814 515 844 q 511 797 515 804 z "},"y":{"ha":506,"x_min":22,"x_max":492,"o":"m 492 822 q 349 414 453 665 q 192 10 226 121 q 185 -46 185 -12 q 185 -104 186 -92 q 133 -153 181 -153 q 83 -137 110 -156 q 57 -97 56 -118 q 108 135 61 4 q 194 357 151 246 q 26 743 96 621 q 22 757 22 750 q 40 785 22 772 q 74 799 57 799 q 126 783 76 799 q 199 647 161 731 q 261 506 231 576 q 317 671 289 589 q 388 829 349 767 q 426 849 399 849 q 492 822 465 849 z "},"z":{"ha":486,"x_min":-18,"x_max":533,"o":"m 529 38 q 533 19 533 28 q 519 -9 533 4 q 492 -35 506 -22 q 96 40 319 -22 q 31 63 49 54 q -18 106 -3 78 q -18 133 -17 117 q 178 360 140 314 q 347 606 285 492 q 257 628 307 628 q 172 619 228 628 q 88 610 115 610 q 22 619 51 610 q -18 669 -18 643 q -11 688 -18 679 q 106 719 29 719 q 131 719 114 719 q 156 719 147 719 q 222 726 196 719 q 335 717 278 722 q 438 683 401 708 q 475 621 475 658 q 471 599 475 610 q 326 363 426 489 q 143 147 235 254 q 499 68 350 86 q 529 38 514 68 z "},"{":{"ha":347,"x_min":0,"x_max":0,"o":""},"|":{"ha":439,"x_min":143,"x_max":319,"o":"m 318 957 q 274 229 289 588 q 275 -57 275 132 q 281 -165 275 -96 q 286 -271 286 -235 q 267 -297 286 -290 q 231 -308 247 -303 q 197 -311 215 -314 q 174 -299 179 -308 q 150 -194 153 -258 q 150 -85 150 -140 q 143 115 143 10 q 163 550 143 282 q 190 976 186 892 q 212 1007 192 993 q 256 1021 232 1021 q 301 1001 282 1021 q 318 957 319 982 z "},"}":{"ha":347,"x_min":0,"x_max":0,"o":""},"~":{"ha":347,"x_min":0,"x_max":0,"o":""},"†":{"ha":347,"x_min":0,"x_max":0,"o":""},"¢":{"ha":347,"x_min":0,"x_max":0,"o":""},"£":{"ha":347,"x_min":0,"x_max":0,"o":""},"§":{"ha":347,"x_min":0,"x_max":0,"o":""},"•":{"ha":367,"x_min":58,"x_max":335,"o":"m 324 394 q 335 325 335 353 q 310 257 335 282 q 214 229 278 225 q 61 360 103 236 q 58 379 58 369 q 87 443 58 413 q 144 471 115 474 q 250 461 243 464 q 324 394 310 447 z "},"¶":{"ha":347,"x_min":0,"x_max":0,"o":""},"ß":{"ha":347,"x_min":0,"x_max":0,"o":""},"´":{"ha":600,"x_min":211,"x_max":538,"o":"m 536 921 q 451 738 531 836 q 315 583 383 661 q 229 565 292 553 q 211 586 211 569 q 226 632 211 600 q 331 803 261 701 q 446 972 426 942 q 469 985 454 985 q 515 963 492 985 q 536 921 538 942 z "},"¨":{"ha":517,"x_min":58,"x_max":435,"o":"m 422 936 q 417 868 435 886 q 368 853 399 850 q 315 878 340 854 q 290 929 290 903 q 304 960 290 946 q 333 974 318 975 q 386 969 386 969 q 422 936 415 963 m 190 936 q 185 868 203 886 q 135 853 167 850 q 83 879 107 854 q 58 929 58 904 q 72 960 58 946 q 100 974 85 975 q 153 969 126 972 q 190 936 183 963 z "},"Æ":{"ha":838,"x_min":-6,"x_max":854,"o":"m 796 -15 q 654 -39 743 -10 q 518 -69 560 -69 q 447 -56 481 -69 q 414 10 421 -44 q 386 201 407 75 q 310 182 365 199 q 232 167 261 167 q 210 168 221 167 q 117 -94 161 71 q 101 -106 114 -104 q 75 -104 93 -107 q 51 -101 57 -101 q 0 -56 31 -101 q -6 -36 -6 -47 q 4 -3 -6 -24 q 21 29 19 25 q 300 701 133 335 q 358 722 307 722 q 397 700 363 718 q 425 665 422 688 q 447 657 428 643 q 603 714 507 683 q 757 765 751 763 q 769 767 763 767 q 801 756 782 767 q 831 739 825 740 q 846 721 846 733 q 836 688 846 726 q 778 636 826 650 q 692 615 735 626 q 472 529 618 592 q 506 357 485 425 q 675 374 560 363 q 724 395 693 375 q 768 415 756 415 q 785 408 778 415 q 814 389 786 407 q 829 367 829 378 q 817 336 829 354 q 738 282 799 308 q 561 247 703 267 q 513 219 550 246 q 533 54 517 163 q 644 81 553 57 q 753 99 713 99 q 785 96 769 99 q 854 43 854 85 q 836 1 854 19 q 796 -15 818 -18 m 375 333 q 369 410 372 390 q 354 481 365 451 l 344 481 q 300 389 301 392 q 265 292 276 336 q 296 297 278 290 q 325 303 314 303 q 338 301 331 303 q 355 317 347 301 q 375 333 363 333 z "},"Ø":{"ha":533,"x_min":29,"x_max":525,"o":"m 511 300 q 279 81 429 114 q 189 86 233 71 q 153 -10 169 28 q 142 -19 149 -19 q 129 -15 138 -19 q 119 -10 121 -10 q 99 18 97 -3 q 129 121 100 56 q 83 163 106 139 q 29 314 29 221 q 90 535 29 417 q 154 621 117 585 q 236 664 197 664 q 276 649 258 664 q 353 611 300 628 q 453 814 408 719 q 468 824 457 824 q 507 781 503 824 q 501 749 508 763 l 418 586 q 476 528 457 564 q 525 368 525 435 q 511 300 525 331 m 400 386 q 369 488 393 458 q 226 176 281 310 q 246 176 236 174 q 358 256 308 193 q 400 386 407 319 m 283 472 q 249 444 265 451 q 221 453 239 440 q 197 465 203 465 q 190 463 193 465 q 142 333 142 421 q 169 232 142 274 l 172 228 q 283 472 211 326 z "},"¥":{"ha":347,"x_min":0,"x_max":0,"o":""},"ª":{"ha":347,"x_min":0,"x_max":0,"o":""},"º":{"ha":347,"x_min":0,"x_max":0,"o":""},"æ":{"ha":347,"x_min":0,"x_max":0,"o":""},"ø":{"ha":347,"x_min":0,"x_max":0,"o":""},"¿":{"ha":489,"x_min":28,"x_max":460,"o":"m 444 778 q 440 726 460 742 q 372 719 419 710 q 317 754 332 728 q 310 776 310 765 q 332 817 310 797 q 375 836 354 836 q 444 778 421 836 m 438 124 q 439 101 439 113 q 386 -26 439 36 q 282 -121 357 -61 q 193 -156 236 -157 q 94 -121 139 -153 q 38 -35 50 -89 q 28 42 28 4 q 108 275 28 147 q 249 489 178 382 q 281 558 265 524 q 338 603 303 599 q 407 579 410 611 q 279 294 397 472 q 144 10 158 113 q 153 -28 142 -11 q 185 -46 165 -46 q 231 -17 201 -46 q 293 63 250 10 q 318 140 303 75 q 372 179 328 183 q 438 124 431 174 z "},"¡":{"ha":371,"x_min":71,"x_max":349,"o":"m 344 796 q 319 756 349 775 q 275 738 289 736 q 233 756 253 740 q 207 799 210 772 q 213 837 204 818 q 235 857 221 856 q 250 863 244 857 q 261 868 256 869 q 344 796 335 840 m 310 624 q 311 565 311 594 q 269 244 311 435 q 200 -72 206 -36 q 179 -95 197 -89 q 144 -96 161 -101 q 97 -83 121 -89 q 72 -49 71 -72 q 143 301 81 49 q 193 661 197 521 q 208 684 193 674 q 235 692 222 694 q 310 624 307 678 z "},"ƒ":{"ha":347,"x_min":0,"x_max":0,"o":""},"«":{"ha":700,"x_min":21,"x_max":667,"o":"m 665 82 q 667 74 667 78 q 651 42 667 57 q 617 25 635 28 q 549 50 581 21 q 501 106 525 78 q 393 215 447 160 q 304 335 333 278 q 299 357 299 344 q 325 418 299 390 q 588 657 503 606 q 619 668 606 668 q 642 647 639 668 q 632 565 651 589 q 418 354 528 435 q 547 221 447 306 q 665 82 639 144 m 388 67 q 389 58 389 63 q 373 28 389 43 q 339 11 357 14 q 271 36 303 7 q 224 90 247 63 q 115 200 169 144 q 26 319 56 263 q 21 342 21 329 q 47 404 21 376 q 311 643 224 590 q 343 654 329 654 q 365 632 363 654 q 356 550 375 574 q 251 438 321 506 q 140 340 182 371 q 269 207 169 292 q 388 67 361 129 z "},"»":{"ha":700,"x_min":25,"x_max":671,"o":"m 665 349 q 671 326 671 339 q 644 264 671 292 q 381 25 468 78 q 349 14 363 14 q 326 35 329 14 q 338 118 317 93 q 551 328 439 246 q 422 461 522 376 q 304 600 331 538 q 303 608 303 604 q 319 640 303 625 q 353 657 335 654 q 421 632 389 661 q 468 576 444 604 q 576 468 522 522 q 665 349 636 404 m 388 333 q 393 311 393 324 q 367 250 393 278 q 104 11 189 63 q 72 0 86 0 q 50 21 53 0 q 60 103 40 79 q 274 314 164 233 q 144 447 244 363 q 26 586 53 524 q 25 594 25 590 q 41 626 25 611 q 75 643 57 640 q 143 618 111 647 q 190 563 167 590 q 299 453 244 508 q 388 333 358 390 z "},"…":{"ha":900,"x_min":147,"x_max":764,"o":"m 751 122 q 747 55 764 72 q 697 40 729 38 q 644 65 669 42 q 619 115 619 89 q 633 147 619 132 q 663 160 647 161 q 715 156 715 156 q 751 122 744 149 m 504 122 q 499 55 517 72 q 450 40 482 38 q 397 65 422 42 q 372 115 372 89 q 386 147 372 132 q 415 160 400 161 q 468 156 468 156 q 504 122 497 149 m 281 122 q 276 55 293 72 q 225 40 258 38 q 172 65 197 42 q 147 115 147 89 q 161 147 147 132 q 190 160 175 161 q 243 156 217 158 q 281 122 274 149 z "},"Œ":{"ha":890,"x_min":57,"x_max":950,"o":"m 947 89 q 943 47 946 69 q 919 19 940 25 q 724 -8 838 -4 q 524 -11 624 -10 q 493 -11 515 -11 q 447 -14 478 -11 q 400 -17 415 -17 q 314 3 353 -17 q 231 -11 256 -14 q 137 35 178 -4 q 79 129 96 74 q 57 283 57 204 q 172 660 57 467 q 228 703 199 703 q 242 701 232 703 q 258 699 253 699 q 306 709 276 699 q 347 719 335 719 q 365 715 357 719 q 438 685 400 701 q 489 632 476 668 q 522 646 503 633 q 558 664 549 660 q 689 697 601 674 q 721 701 704 701 q 782 681 754 701 q 801 642 801 665 q 792 612 801 626 q 772 595 783 597 q 747 592 760 593 q 651 564 703 583 q 565 532 579 536 q 519 501 551 522 q 517 371 514 457 q 744 381 596 374 q 779 370 756 382 q 810 357 803 358 q 844 314 844 349 q 836 285 844 296 q 786 267 824 267 q 738 271 769 267 q 699 275 707 275 q 561 264 649 275 q 518 260 560 264 q 482 243 490 257 q 410 96 440 178 q 519 96 469 90 q 567 99 540 99 q 635 97 589 99 q 704 94 681 94 q 824 113 781 94 q 838 125 829 115 q 857 133 846 135 q 919 110 861 133 q 947 89 950 97 m 396 508 q 385 539 394 519 q 375 571 375 558 q 381 579 375 575 q 386 592 388 583 q 365 619 382 619 q 344 613 358 619 q 324 601 326 603 q 272 571 299 593 q 204 440 225 531 q 179 281 192 360 q 172 193 172 235 q 215 94 172 94 q 228 96 221 94 q 358 226 313 118 q 399 446 399 319 q 396 508 399 478 z "},"œ":{"ha":890,"x_min":57,"x_max":950,"o":"m 947 89 q 943 47 946 69 q 919 19 940 25 q 724 -8 838 -4 q 524 -11 624 -10 q 493 -11 515 -11 q 447 -14 478 -11 q 400 -17 415 -17 q 314 3 353 -17 q 231 -11 256 -14 q 137 35 178 -4 q 79 129 96 74 q 57 283 57 204 q 172 660 57 467 q 228 703 199 703 q 242 701 232 703 q 258 699 253 699 q 306 709 276 699 q 347 719 335 719 q 365 715 357 719 q 438 685 400 701 q 489 632 476 668 q 522 646 503 633 q 558 664 549 660 q 689 697 601 674 q 721 701 704 701 q 782 681 754 701 q 801 642 801 665 q 792 612 801 626 q 772 595 783 597 q 747 592 760 593 q 651 564 703 583 q 565 532 579 536 q 519 501 551 522 q 517 371 514 457 q 744 381 596 374 q 779 370 756 382 q 810 357 803 358 q 844 314 844 349 q 836 285 844 296 q 786 267 824 267 q 738 271 769 267 q 699 275 707 275 q 561 264 649 275 q 518 260 560 264 q 482 243 490 257 q 410 96 440 178 q 519 96 469 90 q 567 99 540 99 q 635 97 589 99 q 704 94 681 94 q 824 113 781 94 q 838 125 829 115 q 857 133 846 135 q 919 110 861 133 q 947 89 950 97 m 396 508 q 385 539 394 519 q 375 571 375 558 q 381 579 375 575 q 386 592 388 583 q 365 619 382 619 q 344 613 358 619 q 324 601 326 603 q 272 571 299 593 q 204 440 225 531 q 179 281 192 360 q 172 193 172 235 q 215 94 172 94 q 228 96 221 94 q 358 226 313 118 q 399 446 399 319 q 396 508 399 478 z "},"–":{"ha":636,"x_min":31,"x_max":599,"o":"m 590 368 q 585 333 588 351 q 571 314 582 315 q 454 311 532 315 q 296 294 401 307 q 81 260 256 293 q 57 269 68 257 q 50 356 31 301 q 54 369 53 363 q 64 374 57 372 q 263 413 163 393 q 464 425 340 425 q 499 428 476 425 q 533 432 522 432 q 581 418 563 432 q 590 368 599 404 z "},"—":{"ha":636,"x_min":31,"x_max":599,"o":"m 590 368 q 585 333 588 351 q 571 314 582 315 q 454 311 532 315 q 296 294 401 307 q 81 260 256 293 q 57 269 68 257 q 50 356 31 301 q 54 369 53 363 q 64 374 57 372 q 263 413 163 393 q 464 425 340 425 q 499 428 476 425 q 533 432 522 432 q 581 418 563 432 q 590 368 599 404 z "},"“":{"ha":576,"x_min":54,"x_max":511,"o":"m 503 876 q 446 693 494 838 q 403 501 410 581 q 349 476 400 471 q 317 482 325 479 q 296 501 300 488 q 289 554 289 528 q 318 678 289 603 q 365 807 360 785 q 460 929 399 929 q 482 925 471 929 q 503 876 511 915 m 268 876 q 211 693 260 838 q 168 501 175 581 q 113 476 165 471 q 81 482 89 479 q 61 501 65 488 q 54 554 54 528 q 83 678 54 603 q 131 807 125 785 q 225 929 164 929 q 247 925 236 929 q 268 876 276 915 z "},"”":{"ha":576,"x_min":53,"x_max":510,"o":"m 503 900 q 510 847 510 874 q 482 724 510 797 q 435 594 440 615 q 339 472 401 472 q 317 476 328 472 q 296 525 288 486 q 353 708 304 564 q 396 900 389 821 q 451 925 399 931 q 483 919 475 922 q 503 900 499 914 m 268 900 q 275 847 275 874 q 246 724 275 799 q 199 594 204 617 q 104 472 165 472 q 82 476 93 472 q 61 525 53 486 q 118 708 69 564 q 161 900 154 821 q 217 925 164 931 q 249 919 240 922 q 268 900 264 914 z "},"‘":{"ha":328,"x_min":54,"x_max":276,"o":"m 268 876 q 211 693 260 838 q 168 501 175 581 q 113 476 165 471 q 81 482 89 479 q 61 501 65 488 q 54 554 54 528 q 83 678 54 603 q 131 807 125 785 q 225 929 164 929 q 247 925 236 929 q 268 876 276 915 z "},"’":{"ha":328,"x_min":53,"x_max":275,"o":"m 268 900 q 275 847 275 874 q 246 724 275 799 q 199 594 204 617 q 104 472 165 472 q 82 476 93 472 q 61 525 53 486 q 118 708 69 564 q 161 900 154 821 q 217 925 164 931 q 249 919 240 922 q 268 900 264 914 z "},"⁄":{"ha":604,"x_min":-107,"x_max":713,"o":"m 710 904 q 700 863 713 878 q 267 278 440 526 q 111 36 215 194 q 4 -149 78 -25 q -18 -161 -4 -161 q -42 -156 -26 -161 q -64 -149 -58 -150 q -93 -135 -79 -147 q -106 -111 -107 -122 q -69 -11 -101 -65 q -10 82 -39 35 q 288 525 93 267 q 604 949 446 738 q 635 963 614 963 q 710 904 704 963 z "},"¤":{"ha":347,"x_min":0,"x_max":0,"o":""},"‹":{"ha":347,"x_min":0,"x_max":0,"o":""},"›":{"ha":347,"x_min":0,"x_max":0,"o":""},"":{"ha":347,"x_min":0,"x_max":0,"o":""},"":{"ha":347,"x_min":0,"x_max":0,"o":""},"‡":{"ha":347,"x_min":0,"x_max":0,"o":""},"·":{"ha":347,"x_min":0,"x_max":0,"o":""},"‚":{"ha":328,"x_min":53,"x_max":275,"o":"m 268 900 q 275 847 275 874 q 246 724 275 799 q 199 594 204 617 q 104 472 165 472 q 82 476 93 472 q 61 525 53 486 q 118 708 69 564 q 161 900 154 821 q 217 925 164 931 q 249 919 240 922 q 268 900 264 914 z "},"„":{"ha":576,"x_min":53,"x_max":510,"o":"m 503 900 q 510 847 510 874 q 482 724 510 797 q 435 594 440 615 q 339 472 401 472 q 317 476 328 472 q 296 525 288 486 q 353 708 304 564 q 396 900 389 821 q 451 925 399 931 q 483 919 475 922 q 503 900 499 914 m 268 900 q 275 847 275 874 q 246 724 275 799 q 199 594 204 617 q 104 472 165 472 q 82 476 93 472 q 61 525 53 486 q 118 708 69 564 q 161 900 154 821 q 217 925 164 931 q 249 919 240 922 q 268 900 264 914 z "},"‰":{"ha":347,"x_min":0,"x_max":0,"o":""},"ı":{"ha":347,"x_min":0,"x_max":0,"o":""},"ˆ":{"ha":704,"x_min":96,"x_max":661,"o":"m 647 785 q 661 751 661 767 q 643 731 661 736 q 561 731 588 714 q 486 803 524 754 q 422 885 431 875 q 296 739 379 850 q 161 606 221 640 q 149 603 156 603 q 112 623 128 603 q 96 665 96 643 q 121 724 96 693 q 164 771 143 747 q 260 893 211 832 q 368 996 315 961 q 393 1003 378 1003 q 454 985 411 1003 q 564 896 510 961 q 647 785 606 840 z "},"˜":{"ha":347,"x_min":0,"x_max":0,"o":""},"¯":{"ha":347,"x_min":0,"x_max":0,"o":""},"˘":{"ha":347,"x_min":0,"x_max":0,"o":""},"˙":{"ha":347,"x_min":0,"x_max":0,"o":""},"˚":{"ha":347,"x_min":0,"x_max":0,"o":""},"¸":{"ha":347,"x_min":0,"x_max":0,"o":""},"˝":{"ha":347,"x_min":0,"x_max":0,"o":""},"˛":{"ha":347,"x_min":0,"x_max":0,"o":""},"ˇ":{"ha":704,"x_min":92,"x_max":657,"o":"m 657 975 q 631 917 657 947 q 588 869 610 893 q 493 747 540 808 q 385 646 438 681 q 358 639 374 639 q 299 656 339 639 q 189 744 243 679 q 106 856 147 800 q 92 889 92 874 q 110 911 92 906 q 192 911 165 928 q 267 838 229 888 q 331 756 321 765 q 457 901 374 790 q 592 1035 532 1000 q 604 1038 597 1038 q 641 1017 625 1038 q 657 975 657 997 z "},"Ł":{"ha":347,"x_min":0,"x_max":0,"o":""},"ł":{"ha":347,"x_min":0,"x_max":0,"o":""},"Ð":{"ha":347,"x_min":0,"x_max":0,"o":""},"ð":{"ha":347,"x_min":0,"x_max":0,"o":""},"Š":{"ha":385,"x_min":-71,"x_max":494,"o":"m 494 978 q 469 919 494 950 q 426 872 447 896 q 283 699 381 811 l 288 696 q 335 646 335 676 q 294 596 335 617 q 271 594 283 590 q 249 600 251 600 q 233 593 240 600 q 158 410 158 518 q 171 335 158 369 q 276 119 176 319 q 343 -107 343 -14 q 306 -254 343 -183 q 243 -317 292 -281 q 172 -346 204 -346 q 147 -340 158 -346 q 106 -296 106 -322 q 126 -254 106 -278 q 153 -247 133 -247 q 181 -231 174 -246 q 210 -106 210 -169 q 120 156 210 -15 q 31 432 31 328 q 125 664 31 586 q 22 753 74 689 q -56 858 -17 806 q -71 892 -71 878 q -53 913 -71 907 q 31 913 4 929 q 106 840 68 889 q 168 758 158 769 q 294 904 211 793 q 429 1038 369 1003 q 442 1040 435 1040 q 478 1020 463 1040 q 494 978 494 1000 z "},"š":{"ha":385,"x_min":-71,"x_max":494,"o":"m 494 978 q 469 919 494 950 q 426 872 447 896 q 283 699 381 811 l 288 696 q 335 646 335 676 q 294 596 335 617 q 271 594 283 590 q 249 600 251 600 q 233 593 240 600 q 158 410 158 518 q 171 335 158 369 q 276 118 176 321 q 343 -108 343 -15 q 306 -254 343 -183 q 243 -317 292 -281 q 172 -346 204 -346 q 147 -340 158 -346 q 106 -296 106 -322 q 126 -254 106 -278 q 153 -247 133 -247 q 181 -231 174 -246 q 210 -106 210 -169 q 120 156 210 -15 q 31 432 31 328 q 125 664 31 586 q 22 753 74 689 q -56 858 -17 806 q -71 892 -71 878 q -53 913 -71 907 q 31 913 4 929 q 106 840 68 889 q 168 758 158 769 q 294 904 211 793 q 429 1038 369 1003 q 442 1040 435 1040 q 478 1020 463 1040 q 494 978 494 1000 z "},"Ý":{"ha":506,"x_min":22,"x_max":492,"o":"m 492 822 q 349 414 453 665 q 192 10 226 121 q 185 -46 185 -12 q 185 -104 186 -92 q 133 -153 181 -153 q 83 -137 110 -156 q 57 -97 56 -118 q 108 135 61 4 q 194 357 151 246 q 26 743 96 621 q 22 757 22 750 q 40 785 22 772 q 74 799 57 799 q 126 783 76 799 q 133 775 129 781 q 138 767 136 769 q 319 1039 199 856 q 343 1051 328 1051 q 388 1030 365 1051 q 410 988 411 1008 q 328 808 404 904 q 194 657 261 732 q 261 506 217 607 q 317 671 289 589 q 388 829 349 767 q 426 849 399 849 q 492 822 465 849 z "},"ý":{"ha":506,"x_min":22,"x_max":492,"o":"m 492 822 q 349 414 453 665 q 192 10 226 121 q 185 -46 185 -12 q 185 -104 186 -92 q 133 -153 181 -153 q 83 -137 110 -156 q 57 -97 56 -118 q 108 135 61 4 q 194 357 151 246 q 26 743 96 621 q 22 757 22 750 q 40 785 22 772 q 74 799 57 799 q 126 783 76 799 q 133 775 129 781 q 138 767 136 769 q 319 1039 199 856 q 343 1051 328 1051 q 388 1030 365 1051 q 410 988 411 1008 q 328 808 404 904 q 194 657 261 732 q 261 506 217 607 q 317 671 289 589 q 388 829 349 767 q 426 849 399 849 q 492 822 465 849 z "},"Þ":{"ha":347,"x_min":0,"x_max":0,"o":""},"þ":{"ha":347,"x_min":0,"x_max":0,"o":""},"Ž":{"ha":347,"x_min":0,"x_max":0,"o":""},"ž":{"ha":347,"x_min":0,"x_max":0,"o":""},"½":{"ha":347,"x_min":0,"x_max":0,"o":""},"¼":{"ha":347,"x_min":0,"x_max":0,"o":""},"¹":{"ha":347,"x_min":0,"x_max":0,"o":""},"¾":{"ha":347,"x_min":0,"x_max":0,"o":""},"³":{"ha":347,"x_min":0,"x_max":0,"o":""},"²":{"ha":347,"x_min":0,"x_max":0,"o":""},"¦":{"ha":347,"x_min":0,"x_max":0,"o":""},"­":{"ha":636,"x_min":31,"x_max":599,"o":"m 590 368 q 585 333 588 351 q 571 314 582 315 q 454 311 532 315 q 296 294 401 307 q 81 260 256 293 q 57 269 68 257 q 50 356 31 301 q 54 369 53 363 q 64 374 57 372 q 263 413 163 393 q 464 425 340 425 q 499 428 476 425 q 533 432 522 432 q 581 418 563 432 q 590 368 599 404 z "},"×":{"ha":347,"x_min":0,"x_max":0,"o":""},"Ä":{"ha":550,"x_min":-6,"x_max":547,"o":"m 501 972 q 496 904 514 922 q 446 889 478 886 q 393 914 418 890 q 368 964 368 938 q 382 996 368 981 q 411 1010 396 1011 q 464 1006 438 1008 q 501 972 494 999 m 268 972 q 263 904 281 922 q 213 889 244 886 q 161 914 186 890 q 136 964 136 938 q 150 996 136 981 q 179 1010 164 1011 q 232 1006 232 1006 q 268 972 261 999 m 539 67 q 547 28 547 44 q 524 -21 547 0 q 492 -40 500 -42 q 406 69 424 -28 q 360 246 386 175 q 265 238 313 242 q 181 204 211 231 q 140 51 165 161 q 94 -103 117 -50 q 47 -117 83 -128 q -1 -75 1 -101 q 29 67 -6 -22 q 75 211 71 168 q 57 239 76 224 q 38 263 38 254 q 44 277 38 269 q 73 290 50 285 q 99 304 96 294 q 178 563 124 374 q 260 814 224 726 q 294 833 268 833 q 329 821 314 833 q 379 721 368 788 q 394 607 388 664 q 539 67 464 279 m 336 332 q 318 447 332 383 q 292 558 304 503 q 219 328 250 443 q 336 332 242 332 z "},"Å":{"ha":550,"x_min":-6,"x_max":547,"o":"m 539 67 q 547 28 547 44 q 524 -21 547 0 q 492 -40 500 -42 q 406 69 424 -28 q 360 246 386 175 q 265 238 313 242 q 181 204 211 231 q 140 51 165 161 q 94 -103 117 -50 q 47 -117 83 -128 q -1 -75 1 -101 q 29 67 -6 -22 q 75 211 71 168 q 57 239 76 224 q 38 263 38 254 q 44 277 38 269 q 73 290 50 285 q 99 304 96 294 q 178 563 124 374 q 260 814 224 726 q 294 833 268 833 q 329 821 314 833 q 379 721 368 788 q 394 607 388 664 q 539 67 464 279 m 336 332 q 318 447 332 383 q 292 558 304 503 q 219 328 250 443 q 336 332 242 332 z "},"Ç":{"ha":360,"x_min":22,"x_max":419,"o":"m 242 -114 q 210 -264 222 -215 q 160 -408 188 -347 q 132 -422 153 -422 q 90 -411 113 -422 q 67 -374 67 -400 q 76 -333 67 -358 q 90 -294 83 -314 q 126 -167 122 -183 q 150 -36 144 -93 q 156 -18 150 -32 q 121 36 146 -4 q 81 102 101 68 q 51 167 61 136 q 28 346 44 189 q 22 440 22 394 q 165 858 22 686 q 339 958 249 958 q 410 935 378 958 q 419 904 419 928 q 369 857 419 867 q 289 828 304 844 q 133 404 133 664 q 172 174 133 282 q 218 57 204 85 q 303 -40 253 -11 q 344 -58 324 -50 q 367 -93 367 -71 q 352 -133 367 -115 q 321 -147 338 -151 q 265 -129 303 -143 q 242 -114 261 -126 z "},"É":{"ha":508,"x_min":6,"x_max":526,"o":"m 517 694 q 365 646 465 674 q 214 597 265 618 q 196 436 201 561 q 247 428 218 428 q 313 435 268 428 q 378 442 357 442 q 444 425 417 442 q 464 389 464 397 q 454 374 464 379 q 435 354 451 372 q 407 343 424 342 q 300 335 378 336 q 196 318 235 333 q 169 156 169 215 q 181 92 169 115 q 407 53 246 46 q 431 63 418 53 q 451 74 443 74 q 503 15 490 82 q 495 -26 507 -7 q 461 -46 483 -44 q 169 -19 293 -51 q 99 24 131 -10 q 63 99 67 57 q 63 315 50 219 q 28 367 24 342 q 49 390 29 379 q 72 411 69 400 q 83 543 75 422 q 7 601 6 558 q 54 664 8 642 q 140 699 97 682 q 243 865 175 765 q 356 1029 336 999 q 379 1042 364 1042 q 424 1019 401 1042 q 444 976 446 997 q 336 765 439 881 q 426 785 426 785 q 514 756 464 785 q 521 735 515 750 q 526 713 526 719 q 517 694 526 701 z "},"Ñ":{"ha":660,"x_min":58,"x_max":628,"o":"m 628 842 q 590 468 608 656 q 567 97 567 246 q 569 1 567 49 q 553 -37 571 -21 q 514 -54 536 -54 q 442 4 471 -54 q 221 549 353 178 q 214 557 218 557 q 201 538 204 557 q 178 119 178 339 q 183 -96 178 14 q 160 -151 185 -136 q 139 -161 150 -161 q 114 -153 129 -161 q 88 -140 93 -143 q 65 -107 69 -135 q 63 -61 64 -85 q 58 101 58 17 q 75 469 58 249 q 104 842 101 806 q 156 872 106 872 q 225 838 179 875 q 335 563 269 753 q 449 286 397 381 q 514 844 469 471 q 554 872 518 872 q 583 868 567 872 q 610 861 606 863 q 628 842 624 856 z "},"Ö":{"ha":533,"x_min":29,"x_max":525,"o":"m 454 888 q 449 819 467 838 q 399 804 431 801 q 346 829 371 806 q 321 879 321 853 q 335 911 321 896 q 364 925 349 926 q 417 921 390 924 q 454 888 447 914 m 221 888 q 215 819 233 838 q 165 804 197 801 q 114 829 139 806 q 89 879 89 853 q 103 911 89 896 q 132 925 117 926 q 185 921 185 921 q 221 888 214 914 m 511 300 q 279 81 429 115 q 243 76 261 76 q 83 163 164 76 q 29 314 29 221 q 90 535 29 417 q 154 621 117 585 q 236 664 197 664 q 278 647 258 664 q 382 603 297 631 q 476 528 449 581 q 525 368 525 435 q 511 300 525 331 m 400 386 q 346 507 390 488 q 333 510 339 510 q 292 482 317 510 q 249 444 264 450 q 221 453 239 440 q 197 465 203 465 q 190 463 193 465 q 142 333 142 421 q 169 232 142 274 q 235 175 208 175 q 353 251 296 175 q 400 386 407 324 z "},"Ü":{"ha":540,"x_min":24,"x_max":539,"o":"m 471 950 q 465 882 483 900 q 415 867 447 864 q 364 892 389 868 q 339 942 339 915 q 353 974 339 958 q 382 988 367 989 q 435 983 435 983 q 471 950 464 976 m 239 950 q 233 882 251 900 q 183 867 215 864 q 131 892 156 868 q 106 942 106 915 q 119 974 106 958 q 149 988 133 989 q 201 983 175 986 q 239 950 232 976 m 539 757 q 483 497 529 660 q 411 233 421 279 q 294 -22 381 93 q 169 -94 240 -96 q 76 -15 107 -93 q 24 292 24 115 q 43 553 24 393 q 42 639 42 539 q 108 725 42 725 q 138 717 122 725 q 169 701 154 710 q 165 493 171 631 q 158 281 158 346 q 163 154 158 211 q 188 43 165 125 q 279 217 246 108 q 324 414 290 253 q 383 606 350 536 q 400 679 393 625 q 417 754 407 733 q 469 788 432 788 q 539 757 518 788 z "},"á":{"ha":550,"x_min":-6,"x_max":547,"o":"m 539 67 q 547 28 547 44 q 524 -21 547 0 q 492 -40 500 -42 q 406 69 424 -28 q 360 246 386 175 q 265 238 313 242 q 181 204 211 231 q 140 51 165 161 q 94 -103 117 -50 q 47 -117 83 -128 q -1 -75 1 -101 q 29 67 -6 -22 q 75 211 71 168 q 57 239 76 224 q 38 263 38 254 q 44 277 38 269 q 73 290 50 285 q 99 304 96 294 q 213 679 136 431 q 190 653 206 671 q 104 635 168 622 q 85 657 85 639 q 100 701 85 671 q 206 872 135 771 q 321 1042 300 1008 q 344 1054 329 1054 q 389 1033 367 1054 q 410 990 411 1011 q 333 817 404 907 q 379 718 368 782 q 394 607 388 663 q 539 67 465 276 m 336 332 q 318 447 332 383 q 292 558 304 503 q 219 328 250 443 q 336 332 242 332 z "},"à":{"ha":550,"x_min":-6,"x_max":547,"o":"m 539 67 q 547 28 547 44 q 524 -21 547 0 q 492 -40 500 -42 q 406 69 424 -28 q 360 246 386 175 q 265 238 313 242 q 181 204 211 231 q 140 51 165 161 q 94 -103 117 -50 q 47 -117 83 -128 q -1 -75 1 -101 q 29 67 -6 -22 q 75 211 71 168 q 57 239 76 224 q 38 263 38 254 q 44 277 38 269 q 73 290 50 285 q 99 304 96 294 q 175 558 121 369 q 257 807 221 719 q 149 981 221 867 q 144 1029 132 1006 q 168 1043 153 1043 q 221 1022 175 1043 q 265 976 244 1011 q 296 915 281 946 q 390 794 318 875 q 475 678 457 721 q 470 665 479 668 q 447 664 461 661 q 385 686 419 669 q 539 67 413 429 m 336 332 q 318 447 332 383 q 292 558 304 503 q 219 328 250 443 q 336 332 242 332 z "},"â":{"ha":550,"x_min":-18,"x_max":547,"o":"m 533 818 q 547 785 547 800 q 529 763 547 768 q 447 763 474 746 q 372 836 410 786 q 310 918 321 907 q 182 772 267 883 q 47 639 107 674 q 35 636 42 636 q -2 656 14 636 q -18 699 -18 676 q 8 757 -18 726 q 51 804 29 781 q 146 926 99 865 q 254 1028 201 993 q 281 1035 265 1035 q 340 1018 300 1035 q 450 929 396 994 q 533 818 492 874 m 539 67 q 547 28 547 44 q 524 -21 547 0 q 492 -40 500 -42 q 406 69 424 -28 q 360 246 386 175 q 265 238 313 242 q 181 204 211 231 q 140 51 165 161 q 94 -103 117 -50 q 47 -117 83 -128 q -1 -75 1 -101 q 29 67 -6 -22 q 75 211 71 168 q 57 239 76 224 q 38 263 38 254 q 44 277 38 269 q 73 290 50 285 q 99 304 96 294 q 178 563 124 374 q 260 814 224 726 q 294 833 268 833 q 329 821 314 833 q 379 721 368 788 q 394 607 388 664 q 539 67 464 279 m 336 332 q 318 447 332 383 q 292 558 304 503 q 219 328 250 443 q 336 332 242 332 z "},"ä":{"ha":550,"x_min":-6,"x_max":547,"o":"m 501 972 q 496 904 514 922 q 446 889 478 886 q 393 914 418 890 q 368 964 368 938 q 382 996 368 981 q 411 1010 396 1011 q 464 1006 438 1008 q 501 972 494 999 m 268 972 q 263 904 281 922 q 213 889 244 886 q 161 914 186 890 q 136 964 136 938 q 150 996 136 981 q 179 1010 164 1011 q 232 1006 232 1006 q 268 972 261 999 m 539 67 q 547 28 547 44 q 524 -21 547 0 q 492 -40 500 -42 q 406 69 424 -28 q 360 246 386 175 q 265 238 313 242 q 181 204 211 231 q 140 51 165 161 q 94 -103 117 -50 q 47 -117 83 -128 q -1 -75 1 -101 q 29 67 -6 -22 q 75 211 71 168 q 57 239 76 224 q 38 263 38 254 q 44 277 38 269 q 73 290 50 285 q 99 304 96 294 q 178 563 124 374 q 260 814 224 726 q 294 833 268 833 q 329 821 314 833 q 379 721 368 788 q 394 607 388 664 q 539 67 464 279 m 336 332 q 318 447 332 383 q 292 558 304 503 q 219 328 250 443 q 336 332 242 332 z "},"ã":{"ha":550,"x_min":-6,"x_max":547,"o":"m 539 67 q 547 28 547 44 q 524 -21 547 0 q 492 -40 500 -42 q 406 69 424 -28 q 360 246 386 175 q 265 238 313 242 q 181 204 211 231 q 140 51 165 161 q 94 -103 117 -50 q 47 -117 83 -128 q -1 -75 1 -101 q 29 67 -6 -22 q 75 211 71 168 q 57 239 76 224 q 38 263 38 254 q 44 277 38 269 q 73 290 50 285 q 99 304 96 294 q 178 563 124 374 q 260 814 224 726 q 294 833 268 833 q 329 821 314 833 q 379 721 368 788 q 394 607 388 664 q 539 67 464 279 m 336 332 q 318 447 332 383 q 292 558 304 503 q 219 328 250 443 q 336 332 242 332 z "},"å":{"ha":550,"x_min":-6,"x_max":547,"o":"m 539 67 q 547 28 547 44 q 524 -21 547 0 q 492 -40 500 -42 q 406 69 424 -28 q 360 246 386 175 q 265 238 313 242 q 181 204 211 231 q 140 51 165 161 q 94 -103 117 -50 q 47 -117 83 -128 q -1 -75 1 -101 q 29 67 -6 -22 q 75 211 71 168 q 57 239 76 224 q 38 263 38 254 q 44 277 38 269 q 73 290 50 285 q 99 304 96 294 q 178 563 124 374 q 260 814 224 726 q 294 833 268 833 q 329 821 314 833 q 379 721 368 788 q 394 607 388 664 q 539 67 464 279 m 336 332 q 318 447 332 383 q 292 558 304 503 q 219 328 250 443 q 336 332 242 332 z "},"ç":{"ha":360,"x_min":22,"x_max":419,"o":"m 242 -114 q 210 -264 222 -215 q 160 -408 188 -347 q 132 -422 153 -422 q 90 -411 113 -422 q 67 -374 67 -400 q 76 -333 67 -358 q 90 -294 83 -314 q 126 -167 122 -183 q 150 -36 144 -93 q 156 -18 150 -32 q 121 36 146 -4 q 81 102 101 68 q 51 167 61 136 q 28 346 44 189 q 22 440 22 394 q 165 858 22 686 q 339 958 249 958 q 410 935 378 958 q 419 904 419 928 q 369 857 419 867 q 289 828 304 844 q 133 404 133 664 q 172 174 133 282 q 218 57 204 85 q 303 -40 253 -11 q 344 -58 324 -50 q 367 -93 367 -71 q 352 -133 367 -115 q 321 -147 338 -151 q 265 -129 303 -143 q 242 -114 261 -126 z "},"é":{"ha":508,"x_min":6,"x_max":526,"o":"m 517 694 q 365 646 465 674 q 214 597 265 618 q 196 436 201 561 q 247 428 218 428 q 313 435 268 428 q 378 442 357 442 q 444 425 417 442 q 464 389 464 397 q 454 374 464 379 q 435 354 451 372 q 407 343 424 342 q 300 335 378 336 q 196 318 235 333 q 169 156 169 215 q 181 92 169 115 q 407 53 246 46 q 431 63 418 53 q 451 74 443 74 q 503 15 490 82 q 495 -26 507 -7 q 461 -46 483 -44 q 169 -19 293 -51 q 99 24 131 -10 q 63 99 67 57 q 63 315 50 219 q 28 367 24 342 q 49 390 29 379 q 72 411 69 400 q 83 543 75 422 q 7 601 6 558 q 46 660 8 639 q 121 690 54 665 q 224 856 156 757 q 336 1021 314 986 q 360 1033 344 1033 q 404 1012 382 1033 q 425 969 426 990 q 319 761 419 874 q 426 785 408 785 q 514 756 464 785 q 521 735 515 750 q 526 713 526 719 q 517 694 526 701 z "},"è":{"ha":508,"x_min":6,"x_max":526,"o":"m 517 694 q 438 667 490 683 q 429 656 439 658 q 408 656 419 653 l 404 657 q 214 597 342 640 q 196 436 201 561 q 247 428 218 428 q 313 435 268 428 q 378 442 357 442 q 444 425 417 442 q 464 389 464 397 q 454 374 464 379 q 435 354 451 372 q 407 343 424 342 q 300 335 378 336 q 196 318 235 333 q 169 156 169 215 q 181 92 169 115 q 407 53 246 46 q 431 63 418 53 q 451 74 443 74 q 503 15 490 82 q 495 -26 507 -7 q 461 -46 483 -44 q 169 -19 293 -51 q 99 24 131 -10 q 63 99 67 57 q 63 315 50 219 q 28 367 24 342 q 49 390 29 379 q 72 411 69 400 q 83 543 75 422 q 7 601 6 558 q 56 665 8 642 q 144 701 100 683 q 260 744 196 726 q 181 857 225 783 q 110 972 118 960 q 106 1021 93 997 q 129 1035 114 1035 q 182 1014 136 1035 q 226 968 206 1003 q 258 906 242 938 q 364 772 275 875 q 426 785 413 785 q 514 756 464 785 q 521 735 515 750 q 526 713 526 719 q 517 694 526 701 z "},"ê":{"ha":508,"x_min":1,"x_max":567,"o":"m 551 815 q 567 781 567 796 q 549 760 567 764 q 514 751 538 757 q 526 713 526 710 q 517 694 526 703 q 365 646 465 674 q 214 597 265 618 q 196 436 201 561 q 247 428 218 428 q 313 435 268 428 q 378 442 357 442 q 444 425 417 442 q 464 389 464 397 q 454 374 464 379 q 435 354 451 372 q 407 343 424 342 q 300 335 378 336 q 196 318 235 333 q 169 156 169 215 q 181 92 169 115 q 407 53 246 46 q 431 63 418 53 q 451 74 443 74 q 503 15 490 82 q 495 -26 507 -7 q 461 -46 483 -44 q 169 -19 293 -51 q 99 24 131 -10 q 63 99 67 57 q 63 315 50 219 q 28 367 24 342 q 49 390 29 379 q 72 411 69 400 q 83 543 75 422 q 7 601 6 558 q 26 644 7 625 q 1 696 1 665 q 26 754 1 724 q 69 801 49 778 q 164 924 117 863 q 272 1025 219 990 q 299 1032 283 1032 q 358 1015 318 1032 q 468 926 414 992 q 551 815 510 871 m 432 785 q 379 849 410 806 q 328 915 344 897 q 232 811 286 882 q 144 700 165 722 l 144 701 q 410 783 201 729 q 432 785 415 785 z "},"ë":{"ha":508,"x_min":6,"x_max":526,"o":"m 497 967 q 492 899 510 917 q 442 883 474 881 q 389 908 414 885 q 364 958 364 932 q 378 990 364 975 q 407 1004 392 1006 q 460 1000 433 1003 q 497 967 490 993 m 264 967 q 258 899 276 917 q 208 883 240 881 q 157 908 182 885 q 132 958 132 932 q 146 990 132 975 q 175 1004 160 1006 q 228 1000 228 1000 q 264 967 257 993 m 517 694 q 365 646 465 674 q 214 597 265 618 q 196 436 201 561 q 247 428 218 428 q 313 435 268 428 q 378 442 357 442 q 444 425 417 442 q 464 389 464 397 q 454 374 464 379 q 435 354 451 372 q 407 343 424 342 q 300 335 378 336 q 196 318 235 333 q 169 156 169 215 q 181 92 169 115 q 407 53 246 46 q 431 63 418 53 q 451 74 443 74 q 503 15 490 82 q 495 -26 507 -7 q 461 -46 483 -44 q 169 -19 293 -51 q 99 24 131 -10 q 63 99 67 57 q 63 315 50 219 q 28 367 24 342 q 49 390 29 379 q 72 411 69 400 q 83 543 75 422 q 7 601 6 558 q 56 665 8 642 q 144 701 100 683 q 275 749 197 728 q 410 783 342 767 q 426 785 417 785 q 514 756 464 785 q 521 735 515 750 q 526 713 526 719 q 517 694 526 701 z "},"í":{"ha":236,"x_min":-46,"x_max":281,"o":"m 279 990 q 146 750 272 890 q 181 738 167 746 q 189 742 186 742 q 193 728 193 742 q 193 708 192 711 q 197 703 194 704 q 200 619 200 663 q 181 335 200 525 q 161 47 161 144 q 163 -24 161 11 q 108 -61 150 -62 q 43 -10 49 -58 q 38 93 38 39 q 61 388 38 188 q 82 681 85 579 q 60 653 68 665 q -26 635 38 622 q -46 657 -46 639 q -31 701 -46 671 q 75 872 4 771 q 190 1042 169 1008 q 214 1054 199 1054 q 258 1033 236 1054 q 279 990 281 1011 z "},"ì":{"ha":236,"x_min":14,"x_max":301,"o":"m 297 757 q 292 743 301 747 q 269 743 282 740 q 122 831 171 763 q 31 985 76 907 q 26 1033 14 1010 q 50 1047 35 1047 q 103 1026 57 1047 q 147 981 126 1015 q 178 919 163 950 q 242 836 200 879 q 297 757 279 800 m 197 703 q 200 619 200 663 q 181 335 200 525 q 161 47 161 144 q 163 -24 161 11 q 108 -61 150 -62 q 43 -10 49 -58 q 38 93 38 39 q 60 375 38 188 q 83 656 83 563 q 81 726 83 692 q 128 753 94 753 q 181 738 154 753 q 189 742 186 742 q 193 728 193 742 q 193 708 192 711 q 197 703 194 704 z "},"î":{"ha":236,"x_min":-181,"x_max":385,"o":"m 371 819 q 385 786 385 801 q 367 765 385 771 q 285 765 311 749 q 210 838 247 789 q 146 919 154 910 q 19 774 103 885 q -115 640 -56 675 q -128 638 -121 638 q -165 658 -149 638 q -181 700 -181 678 q -156 758 -181 728 q -112 806 -133 782 q -17 928 -65 867 q 92 1031 39 996 q 117 1038 101 1038 q 178 1019 135 1038 q 288 931 233 996 q 371 819 329 875 m 197 703 q 200 619 200 663 q 181 335 200 525 q 161 47 161 144 q 163 -24 161 11 q 108 -61 150 -62 q 43 -10 49 -58 q 38 93 38 39 q 60 375 38 188 q 83 656 83 563 q 81 726 83 692 q 128 753 94 753 q 181 738 154 753 q 189 742 186 742 q 193 728 193 742 q 193 708 192 711 q 197 703 194 704 z "},"ï":{"ha":236,"x_min":-49,"x_max":329,"o":"m 317 958 q 311 892 329 910 q 261 876 293 874 q 210 901 235 878 q 185 951 185 925 q 199 983 185 968 q 228 996 213 997 q 281 992 281 992 q 317 958 310 985 m 85 958 q 79 892 97 910 q 29 876 61 874 q -24 901 1 878 q -49 951 -49 925 q -35 983 -49 968 q -6 996 -21 997 q 47 992 21 994 q 85 958 78 985 m 197 703 q 200 619 200 663 q 181 335 200 525 q 161 47 161 144 q 163 -24 161 11 q 108 -61 150 -62 q 43 -10 49 -58 q 38 93 38 39 q 60 375 38 188 q 83 656 83 563 q 81 726 83 692 q 128 753 94 753 q 181 738 154 753 q 189 742 186 742 q 193 728 193 742 q 193 708 192 711 q 197 703 194 704 z "},"ñ":{"ha":660,"x_min":58,"x_max":628,"o":"m 628 842 q 590 468 608 656 q 567 97 567 246 q 569 1 567 49 q 553 -37 571 -21 q 514 -54 536 -54 q 442 4 471 -54 q 221 549 353 178 q 214 557 218 557 q 201 538 204 557 q 178 119 178 339 q 183 -96 178 14 q 160 -151 185 -136 q 139 -161 150 -161 q 114 -153 129 -161 q 88 -140 93 -143 q 65 -107 69 -135 q 63 -61 64 -85 q 58 101 58 17 q 75 469 58 249 q 104 842 101 806 q 156 872 106 872 q 225 838 179 875 q 335 563 269 753 q 449 286 397 381 q 514 844 469 471 q 554 872 518 872 q 583 868 567 872 q 610 861 606 863 q 628 842 624 856 z "},"ó":{"ha":533,"x_min":29,"x_max":525,"o":"m 511 300 q 279 81 429 115 q 243 76 261 76 q 83 163 164 76 q 29 314 29 221 q 90 535 29 417 q 147 615 117 585 l 140 617 q 122 638 122 621 q 138 682 122 650 q 242 853 172 751 q 357 1022 338 992 q 381 1035 365 1035 q 426 1013 403 1035 q 447 971 449 992 q 375 804 443 892 q 250 663 313 733 q 276 649 267 657 q 382 603 297 632 q 476 528 449 581 q 525 368 525 435 q 511 300 525 331 m 400 386 q 346 507 390 488 q 333 510 339 510 q 292 482 317 510 q 249 444 264 450 q 221 453 239 440 q 197 465 203 465 q 190 463 193 465 q 142 333 142 421 q 169 232 142 274 q 235 175 208 175 q 353 251 296 175 q 400 386 407 324 z "},"ò":{"ha":533,"x_min":29,"x_max":525,"o":"m 503 668 q 497 654 507 658 q 475 654 488 651 q 297 779 376 674 q 175 971 236 875 q 172 1019 158 996 q 196 1033 181 1033 q 247 1013 201 1033 q 292 967 271 1001 q 324 906 308 936 q 418 785 346 865 q 503 668 485 711 m 511 300 q 279 81 429 115 q 243 76 261 76 q 83 163 164 76 q 29 314 29 221 q 90 535 29 417 q 154 621 117 585 q 236 664 197 664 q 278 647 258 664 q 382 603 297 631 q 476 528 449 581 q 525 368 525 435 q 511 300 525 331 m 400 386 q 346 507 390 488 q 333 510 339 510 q 292 482 317 510 q 249 444 264 450 q 221 453 239 440 q 197 465 203 465 q 190 463 193 465 q 142 333 142 421 q 169 232 142 274 q 235 175 208 175 q 353 251 296 175 q 400 386 407 324 z "},"ô":{"ha":533,"x_min":-29,"x_max":536,"o":"m 521 814 q 536 779 536 794 q 518 758 536 764 q 435 758 461 742 q 360 832 397 782 q 297 914 308 903 q 171 768 254 879 q 36 635 96 669 q 24 632 31 632 q -13 652 3 632 q -29 694 -29 672 q -4 753 -29 722 q 39 800 18 776 q 133 922 86 861 q 242 1024 189 989 q 268 1031 253 1031 q 328 1014 288 1031 q 438 925 383 990 q 521 814 479 869 m 511 300 q 279 81 429 115 q 243 76 261 76 q 83 163 164 76 q 29 314 29 221 q 90 535 29 417 q 154 621 117 585 q 236 664 197 664 q 278 647 258 664 q 382 603 297 631 q 476 528 449 581 q 525 368 525 435 q 511 300 525 331 m 400 386 q 346 507 390 488 q 333 510 339 510 q 292 482 317 510 q 249 444 264 450 q 221 453 239 440 q 197 465 203 465 q 190 463 193 465 q 142 333 142 421 q 169 232 142 274 q 235 175 208 175 q 353 251 296 175 q 400 386 407 324 z "},"ö":{"ha":533,"x_min":29,"x_max":525,"o":"m 454 888 q 449 819 467 838 q 399 804 431 801 q 346 829 371 806 q 321 879 321 853 q 335 911 321 896 q 364 925 349 926 q 417 921 390 924 q 454 888 447 914 m 221 888 q 215 819 233 838 q 165 804 197 801 q 114 829 139 806 q 89 879 89 853 q 103 911 89 896 q 132 925 117 926 q 185 921 185 921 q 221 888 214 914 m 511 300 q 279 81 429 115 q 243 76 261 76 q 83 163 164 76 q 29 314 29 221 q 90 535 29 417 q 154 621 117 585 q 236 664 197 664 q 278 647 258 664 q 382 603 297 631 q 476 528 449 581 q 525 368 525 435 q 511 300 525 331 m 400 386 q 346 507 390 488 q 333 510 339 510 q 292 482 317 510 q 249 444 264 450 q 221 453 239 440 q 197 465 203 465 q 190 463 193 465 q 142 333 142 421 q 169 232 142 274 q 235 175 208 175 q 353 251 296 175 q 400 386 407 324 z "},"õ":{"ha":533,"x_min":29,"x_max":525,"o":"m 511 300 q 279 81 429 115 q 243 76 261 76 q 83 163 164 76 q 29 314 29 221 q 90 535 29 417 q 154 621 117 585 q 236 664 197 664 q 278 647 258 664 q 382 603 297 631 q 476 528 449 581 q 525 368 525 435 q 511 300 525 331 m 400 386 q 346 507 390 488 q 333 510 339 510 q 292 482 317 510 q 249 444 264 450 q 221 453 239 440 q 197 465 203 465 q 190 463 193 465 q 142 333 142 421 q 169 232 142 274 q 235 175 208 175 q 353 251 296 175 q 400 386 407 324 z "},"ú":{"ha":540,"x_min":24,"x_max":539,"o":"m 478 976 q 420 824 472 890 q 314 696 368 758 q 228 678 290 665 q 208 700 208 682 q 224 743 208 713 q 388 1028 275 846 q 411 1040 396 1040 q 456 1019 433 1040 q 478 976 479 997 m 539 757 q 483 497 529 660 q 411 233 421 279 q 294 -22 381 93 q 169 -94 240 -96 q 76 -15 107 -93 q 24 292 24 115 q 43 553 24 393 q 42 639 42 539 q 108 725 42 725 q 138 717 122 725 q 169 701 154 710 q 165 493 171 631 q 158 281 158 346 q 163 154 158 211 q 188 43 165 125 q 279 217 246 108 q 324 414 290 253 q 383 606 350 536 q 400 679 393 625 q 417 754 407 733 q 469 788 432 788 q 539 757 518 788 z "},"ù":{"ha":540,"x_min":24,"x_max":539,"o":"m 539 757 q 483 497 529 660 q 411 233 421 279 q 294 -22 381 93 q 169 -94 240 -96 q 76 -15 107 -93 q 24 292 24 115 q 43 553 24 393 q 42 639 42 539 q 108 725 42 725 q 138 717 122 725 q 169 701 154 710 q 165 493 171 631 q 158 281 158 346 q 163 154 158 211 q 188 43 165 125 q 279 217 246 108 q 324 414 290 253 q 383 606 350 536 q 399 668 394 628 q 258 799 325 701 q 154 967 207 883 q 150 1015 138 993 q 174 1029 158 1029 q 226 1008 181 1029 q 271 963 250 997 q 301 903 286 932 q 418 756 315 875 q 471 788 433 788 q 539 757 518 788 z "},"û":{"ha":540,"x_min":-29,"x_max":539,"o":"m 539 757 q 483 497 529 660 q 411 233 421 279 q 294 -22 381 93 q 169 -94 240 -96 q 76 -15 107 -93 q 24 292 24 115 q 43 553 24 393 q 42 646 42 542 l 36 643 q 24 640 31 640 q -14 660 1 640 q -29 701 -29 679 q -4 761 -29 731 q 39 808 18 785 q 135 931 86 869 q 243 1032 190 997 q 268 1039 253 1039 q 329 1021 286 1039 q 439 932 385 997 q 521 822 479 878 q 536 788 536 803 q 526 771 536 776 q 539 757 535 763 m 428 771 q 358 843 393 793 q 297 922 307 911 q 208 826 257 890 q 126 722 133 731 q 169 701 140 715 q 165 493 171 631 q 158 281 158 346 q 163 154 158 211 q 188 43 165 125 q 279 217 246 108 q 324 414 290 253 q 383 606 350 536 q 401 692 392 624 q 428 771 410 751 z "},"ü":{"ha":540,"x_min":24,"x_max":539,"o":"m 471 950 q 465 882 483 900 q 415 867 447 864 q 364 892 389 868 q 339 942 339 915 q 353 974 339 958 q 382 988 367 989 q 435 983 435 983 q 471 950 464 976 m 239 950 q 233 882 251 900 q 183 867 215 864 q 131 892 156 868 q 106 942 106 915 q 119 974 106 958 q 149 988 133 989 q 201 983 175 986 q 239 950 232 976 m 539 757 q 483 497 529 660 q 411 233 421 279 q 294 -22 381 93 q 169 -94 240 -96 q 76 -15 107 -93 q 24 292 24 115 q 43 553 24 393 q 42 639 42 539 q 108 725 42 725 q 138 717 122 725 q 169 701 154 710 q 165 493 171 631 q 158 281 158 346 q 163 154 158 211 q 188 43 165 125 q 279 217 246 108 q 324 414 290 253 q 383 606 350 536 q 400 679 393 625 q 417 754 407 733 q 469 788 432 788 q 539 757 518 788 z "},"°":{"ha":347,"x_min":0,"x_max":0,"o":""},"®":{"ha":347,"x_min":0,"x_max":0,"o":""},"©":{"ha":347,"x_min":0,"x_max":0,"o":""},"™":{"ha":347,"x_min":0,"x_max":0,"o":""},"≠":{"ha":347,"x_min":0,"x_max":0,"o":""},"∞":{"ha":347,"x_min":0,"x_max":0,"o":""},"±":{"ha":347,"x_min":0,"x_max":0,"o":""},"≤":{"ha":347,"x_min":0,"x_max":0,"o":""},"≥":{"ha":347,"x_min":0,"x_max":0,"o":""},"µ":{"ha":347,"x_min":0,"x_max":0,"o":""},"∂":{"ha":347,"x_min":0,"x_max":0,"o":""},"∑":{"ha":347,"x_min":0,"x_max":0,"o":""},"∏":{"ha":347,"x_min":0,"x_max":0,"o":""},"π":{"ha":347,"x_min":0,"x_max":0,"o":""},"∫":{"ha":347,"x_min":0,"x_max":0,"o":""},"Ω":{"ha":347,"x_min":0,"x_max":0,"o":""},"¬":{"ha":347,"x_min":0,"x_max":0,"o":""},"√":{"ha":347,"x_min":0,"x_max":0,"o":""},"≈":{"ha":347,"x_min":0,"x_max":0,"o":""},"Δ":{"ha":347,"x_min":0,"x_max":0,"o":""}," ":{"ha":347,"x_min":0,"x_max":0,"o":""},"À":{"ha":550,"x_min":-6,"x_max":547,"o":"m 539 67 q 547 28 547 44 q 524 -21 547 0 q 492 -40 500 -42 q 406 69 424 -28 q 360 246 386 175 q 265 238 313 242 q 181 204 211 231 q 140 51 165 161 q 94 -103 117 -50 q 47 -117 83 -128 q -1 -75 1 -101 q 29 67 -6 -22 q 75 211 71 168 q 57 239 76 224 q 38 263 38 254 q 44 277 38 269 q 73 290 50 285 q 99 304 96 294 q 175 558 121 369 q 257 807 221 719 q 149 981 221 867 q 144 1029 132 1006 q 168 1043 153 1043 q 221 1022 175 1043 q 265 976 244 1011 q 296 915 281 946 q 390 794 318 875 q 475 678 457 721 q 470 665 479 668 q 447 664 461 661 q 385 686 419 669 q 539 67 413 429 m 336 332 q 318 447 332 383 q 292 558 304 503 q 219 328 250 443 q 336 332 242 332 z "},"Ã":{"ha":550,"x_min":-6,"x_max":547,"o":"m 539 67 q 547 28 547 44 q 524 -21 547 0 q 492 -40 500 -42 q 406 69 424 -28 q 360 246 386 175 q 265 238 313 242 q 181 204 211 231 q 140 51 165 161 q 94 -103 117 -50 q 47 -117 83 -128 q -1 -75 1 -101 q 29 67 -6 -22 q 75 211 71 168 q 57 239 76 224 q 38 263 38 254 q 44 277 38 269 q 73 290 50 285 q 99 304 96 294 q 178 563 124 374 q 260 814 224 726 q 294 833 268 833 q 329 821 314 833 q 379 721 368 788 q 394 607 388 664 q 539 67 464 279 m 336 332 q 318 447 332 383 q 292 558 304 503 q 219 328 250 443 q 336 332 242 332 z "},"Õ":{"ha":533,"x_min":29,"x_max":525,"o":"m 511 300 q 279 81 429 115 q 243 76 261 76 q 83 163 164 76 q 29 314 29 221 q 90 535 29 417 q 154 621 117 585 q 236 664 197 664 q 278 647 258 664 q 382 603 297 631 q 476 528 449 581 q 525 368 525 435 q 511 300 525 331 m 400 386 q 346 507 390 488 q 333 510 339 510 q 292 482 317 510 q 249 444 264 450 q 221 453 239 440 q 197 465 203 465 q 190 463 193 465 q 142 333 142 421 q 169 232 142 274 q 235 175 208 175 q 353 251 296 175 q 400 386 407 324 z "},"÷":{"ha":347,"x_min":0,"x_max":0,"o":""},"◊":{"ha":347,"x_min":0,"x_max":0,"o":""},"ÿ":{"ha":506,"x_min":22,"x_max":492,"o":"m 492 822 q 349 414 453 665 q 192 10 226 121 q 185 -46 185 -12 q 185 -104 186 -92 q 133 -153 181 -153 q 83 -137 110 -156 q 57 -97 56 -118 q 108 135 61 4 q 194 357 151 246 q 26 743 96 621 q 22 757 22 750 q 40 785 22 772 q 74 799 57 799 q 126 783 76 799 q 199 647 161 731 q 261 506 231 576 q 317 671 289 589 q 388 829 349 767 q 426 849 399 849 q 492 822 465 849 z "},"Ÿ":{"ha":506,"x_min":22,"x_max":492,"o":"m 492 822 q 349 414 453 665 q 192 10 226 121 q 185 -46 185 -12 q 185 -104 186 -92 q 133 -153 181 -153 q 83 -137 110 -156 q 57 -97 56 -118 q 108 135 61 4 q 194 357 151 246 q 26 743 96 621 q 22 757 22 750 q 40 785 22 772 q 74 799 57 799 q 126 783 76 799 q 199 647 161 731 q 261 506 231 576 q 317 671 289 589 q 388 829 349 767 q 426 849 399 849 q 492 822 465 849 z "},"Â":{"ha":550,"x_min":-6,"x_max":547,"o":"m 539 67 q 547 28 547 44 q 524 -21 547 0 q 492 -40 500 -42 q 406 69 424 -28 q 360 246 386 175 q 265 238 313 242 q 181 204 211 231 q 140 51 165 161 q 94 -103 117 -50 q 47 -117 83 -128 q -1 -75 1 -101 q 29 67 -6 -22 q 75 211 71 168 q 57 239 76 224 q 38 263 38 254 q 44 277 38 269 q 73 290 50 285 q 99 304 96 294 q 178 563 124 374 q 260 814 224 726 q 294 833 268 833 q 329 821 314 833 q 379 721 368 788 q 394 607 388 664 q 539 67 464 279 m 336 332 q 318 447 332 383 q 292 558 304 503 q 219 328 250 443 q 336 332 242 332 z "},"Ê":{"ha":508,"x_min":6,"x_max":526,"o":"m 517 694 q 365 646 465 674 q 214 597 265 618 q 196 436 201 561 q 247 428 218 428 q 313 435 268 428 q 378 442 357 442 q 444 425 417 442 q 464 389 464 397 q 454 374 464 379 q 435 354 451 372 q 407 343 424 342 q 300 335 378 336 q 196 318 235 333 q 169 156 169 215 q 181 92 169 115 q 407 53 246 46 q 431 63 418 53 q 451 74 443 74 q 503 15 490 82 q 495 -26 507 -7 q 461 -46 483 -44 q 169 -19 293 -51 q 99 24 131 -10 q 63 99 67 57 q 63 315 50 219 q 28 367 24 342 q 49 390 29 379 q 72 411 69 400 q 83 543 75 422 q 7 601 6 558 q 56 665 8 642 q 144 701 100 683 q 275 749 197 728 q 410 783 342 767 q 426 785 417 785 q 514 756 464 785 q 521 735 515 750 q 526 713 526 719 q 517 694 526 701 z "},"Á":{"ha":550,"x_min":-6,"x_max":547,"o":"m 539 67 q 547 28 547 44 q 524 -21 547 0 q 492 -40 500 -42 q 406 69 424 -28 q 360 246 386 175 q 265 238 313 242 q 181 204 211 231 q 140 51 165 161 q 94 -103 117 -50 q 47 -117 83 -128 q -1 -75 1 -101 q 29 67 -6 -22 q 75 211 71 168 q 57 239 76 224 q 38 263 38 254 q 44 277 38 269 q 73 290 50 285 q 99 304 96 294 q 213 679 136 431 q 190 653 206 671 q 104 635 168 622 q 85 657 85 639 q 100 701 85 671 q 206 872 135 771 q 321 1042 300 1008 q 344 1054 329 1054 q 389 1033 367 1054 q 410 990 411 1011 q 333 817 404 907 q 379 718 368 782 q 394 607 388 663 q 539 67 465 276 m 336 332 q 318 447 332 383 q 292 558 304 503 q 219 328 250 443 q 336 332 242 332 z "},"Ë":{"ha":508,"x_min":6,"x_max":526,"o":"m 497 967 q 492 899 510 917 q 442 883 474 881 q 389 908 414 885 q 364 958 364 932 q 378 990 364 975 q 407 1004 392 1006 q 460 1000 433 1003 q 497 967 490 993 m 264 967 q 258 899 276 917 q 208 883 240 881 q 157 908 182 885 q 132 958 132 932 q 146 990 132 975 q 175 1004 160 1006 q 228 1000 228 1000 q 264 967 257 993 m 517 694 q 365 646 465 674 q 214 597 265 618 q 196 436 201 561 q 247 428 218 428 q 313 435 268 428 q 378 442 357 442 q 444 425 417 442 q 464 389 464 397 q 454 374 464 379 q 435 354 451 372 q 407 343 424 342 q 300 335 378 336 q 196 318 235 333 q 169 156 169 215 q 181 92 169 115 q 407 53 246 46 q 431 63 418 53 q 451 74 443 74 q 503 15 490 82 q 495 -26 507 -7 q 461 -46 483 -44 q 169 -19 293 -51 q 99 24 131 -10 q 63 99 67 57 q 63 315 50 219 q 28 367 24 342 q 49 390 29 379 q 72 411 69 400 q 83 543 75 422 q 7 601 6 558 q 56 665 8 642 q 144 701 100 683 q 275 749 197 728 q 410 783 342 767 q 426 785 417 785 q 514 756 464 785 q 521 735 515 750 q 526 713 526 719 q 517 694 526 701 z "},"È":{"ha":508,"x_min":6,"x_max":526,"o":"m 517 694 q 438 667 490 683 q 429 656 439 658 q 408 656 419 653 l 404 657 q 214 597 342 640 q 196 436 201 561 q 247 428 218 428 q 313 435 268 428 q 378 442 357 442 q 444 425 417 442 q 464 389 464 397 q 454 374 464 379 q 435 354 451 372 q 407 343 424 342 q 300 335 378 336 q 196 318 235 333 q 169 156 169 215 q 181 92 169 115 q 407 53 246 46 q 431 63 418 53 q 451 74 443 74 q 503 15 490 82 q 495 -26 507 -7 q 461 -46 483 -44 q 169 -19 293 -51 q 99 24 131 -10 q 63 99 67 57 q 63 315 50 219 q 28 367 24 342 q 49 390 29 379 q 72 411 69 400 q 83 543 75 422 q 7 601 6 558 q 56 665 8 642 q 144 701 100 683 q 260 744 196 726 q 181 857 225 783 q 110 972 118 960 q 106 1021 93 997 q 129 1035 114 1035 q 182 1014 136 1035 q 226 968 206 1003 q 258 906 242 938 q 364 772 275 875 q 426 785 413 785 q 514 756 464 785 q 521 735 515 750 q 526 713 526 719 q 517 694 526 701 z "},"Í":{"ha":236,"x_min":-46,"x_max":281,"o":"m 279 990 q 146 750 272 890 q 181 738 167 746 q 189 742 186 742 q 193 728 193 742 q 193 708 192 711 q 197 703 194 704 q 200 619 200 663 q 181 335 200 525 q 161 47 161 144 q 163 -24 161 11 q 108 -61 150 -62 q 43 -10 49 -58 q 38 93 38 39 q 61 388 38 188 q 82 681 85 579 q 60 653 68 665 q -26 635 38 622 q -46 657 -46 639 q -31 701 -46 671 q 75 872 4 771 q 190 1042 169 1008 q 214 1054 199 1054 q 258 1033 236 1054 q 279 990 281 1011 z "},"Î":{"ha":236,"x_min":38,"x_max":200,"o":"m 197 703 q 200 619 200 663 q 181 335 200 525 q 161 47 161 144 q 163 -24 161 11 q 108 -61 150 -62 q 43 -10 49 -58 q 38 93 38 39 q 60 375 38 188 q 83 656 83 563 q 81 726 83 692 q 128 753 94 753 q 181 738 154 753 q 189 742 186 742 q 193 728 193 742 q 193 708 192 711 q 197 703 194 704 z "},"Ï":{"ha":236,"x_min":-49,"x_max":329,"o":"m 317 958 q 311 892 329 910 q 261 876 293 874 q 210 901 235 878 q 185 951 185 925 q 199 983 185 968 q 228 996 213 997 q 281 992 281 992 q 317 958 310 985 m 85 958 q 79 892 97 910 q 29 876 61 874 q -24 901 1 878 q -49 951 -49 925 q -35 983 -49 968 q -6 996 -21 997 q 47 992 21 994 q 85 958 78 985 m 197 703 q 200 619 200 663 q 181 335 200 525 q 161 47 161 144 q 163 -24 161 11 q 108 -61 150 -62 q 43 -10 49 -58 q 38 93 38 39 q 60 375 38 188 q 83 656 83 563 q 81 726 83 692 q 128 753 94 753 q 181 738 154 753 q 189 742 186 742 q 193 728 193 742 q 193 708 192 711 q 197 703 194 704 z "},"Ì":{"ha":236,"x_min":14,"x_max":301,"o":"m 297 757 q 292 743 301 747 q 269 743 282 740 q 122 831 171 763 q 31 985 76 907 q 26 1033 14 1010 q 50 1047 35 1047 q 103 1026 57 1047 q 147 981 126 1015 q 178 919 163 950 q 242 836 200 879 q 297 757 279 800 m 197 703 q 200 619 200 663 q 181 335 200 525 q 161 47 161 144 q 163 -24 161 11 q 108 -61 150 -62 q 43 -10 49 -58 q 38 93 38 39 q 60 375 38 188 q 83 656 83 563 q 81 726 83 692 q 128 753 94 753 q 181 738 154 753 q 189 742 186 742 q 193 728 193 742 q 193 708 192 711 q 197 703 194 704 z "},"Ó":{"ha":533,"x_min":29,"x_max":525,"o":"m 511 300 q 279 81 429 115 q 243 76 261 76 q 83 163 164 76 q 29 314 29 221 q 90 535 29 417 q 147 615 117 585 l 140 617 q 122 638 122 621 q 138 682 122 650 q 242 853 172 751 q 357 1022 338 992 q 381 1035 365 1035 q 426 1013 403 1035 q 447 971 449 992 q 375 804 443 892 q 250 663 313 733 q 276 649 267 657 q 382 603 297 632 q 476 528 449 581 q 525 368 525 435 q 511 300 525 331 m 400 386 q 346 507 390 488 q 333 510 339 510 q 292 482 317 510 q 249 444 264 450 q 221 453 239 440 q 197 465 203 465 q 190 463 193 465 q 142 333 142 421 q 169 232 142 274 q 235 175 208 175 q 353 251 296 175 q 400 386 407 324 z "},"Ô":{"ha":533,"x_min":29,"x_max":525,"o":"m 511 300 q 279 81 429 115 q 243 76 261 76 q 83 163 164 76 q 29 314 29 221 q 90 535 29 417 q 154 621 117 585 q 236 664 197 664 q 278 647 258 664 q 382 603 297 631 q 476 528 449 581 q 525 368 525 435 q 511 300 525 331 m 400 386 q 346 507 390 488 q 333 510 339 510 q 292 482 317 510 q 249 444 264 450 q 221 453 239 440 q 197 465 203 465 q 190 463 193 465 q 142 333 142 421 q 169 232 142 274 q 235 175 208 175 q 353 251 296 175 q 400 386 407 324 z "},"":{"ha":347,"x_min":0,"x_max":0,"o":""},"Ò":{"ha":533,"x_min":29,"x_max":525,"o":"m 503 668 q 497 654 507 658 q 475 654 488 651 q 297 779 376 674 q 175 971 236 875 q 172 1019 158 996 q 196 1033 181 1033 q 247 1013 201 1033 q 292 967 271 1001 q 324 906 308 936 q 418 785 346 865 q 503 668 485 711 m 511 300 q 279 81 429 115 q 243 76 261 76 q 83 163 164 76 q 29 314 29 221 q 90 535 29 417 q 154 621 117 585 q 236 664 197 664 q 278 647 258 664 q 382 603 297 631 q 476 528 449 581 q 525 368 525 435 q 511 300 525 331 m 400 386 q 346 507 390 488 q 333 510 339 510 q 292 482 317 510 q 249 444 264 450 q 221 453 239 440 q 197 465 203 465 q 190 463 193 465 q 142 333 142 421 q 169 232 142 274 q 235 175 208 175 q 353 251 296 175 q 400 386 407 324 z "},"Ú":{"ha":540,"x_min":24,"x_max":539,"o":"m 478 976 q 420 824 472 890 q 314 696 368 758 q 228 678 290 665 q 208 700 208 682 q 224 743 208 713 q 388 1028 275 846 q 411 1040 396 1040 q 456 1019 433 1040 q 478 976 479 997 m 539 757 q 483 497 529 660 q 411 233 421 279 q 294 -22 381 93 q 169 -94 240 -96 q 76 -15 107 -93 q 24 292 24 115 q 43 553 24 393 q 42 639 42 539 q 108 725 42 725 q 138 717 122 725 q 169 701 154 710 q 165 493 171 631 q 158 281 158 346 q 163 154 158 211 q 188 43 165 125 q 279 217 246 108 q 324 414 290 253 q 383 606 350 536 q 400 679 393 625 q 417 754 407 733 q 469 788 432 788 q 539 757 518 788 z "},"Û":{"ha":540,"x_min":24,"x_max":539,"o":"m 539 757 q 483 497 529 660 q 411 233 421 279 q 294 -22 381 93 q 169 -94 240 -96 q 76 -15 107 -93 q 24 292 24 115 q 43 553 24 393 q 42 639 42 539 q 108 725 42 725 q 138 717 122 725 q 169 701 154 710 q 165 493 171 631 q 158 281 158 346 q 163 154 158 211 q 188 43 165 125 q 279 217 246 108 q 324 414 290 253 q 383 606 350 536 q 400 679 393 625 q 417 754 407 733 q 469 788 432 788 q 539 757 518 788 z "},"Ù":{"ha":540,"x_min":24,"x_max":539,"o":"m 539 757 q 483 497 529 660 q 411 233 421 279 q 294 -22 381 93 q 169 -94 240 -96 q 76 -15 107 -93 q 24 292 24 115 q 43 553 24 393 q 42 639 42 539 q 108 725 42 725 q 138 717 122 725 q 169 701 154 710 q 165 493 171 631 q 158 281 158 346 q 163 154 158 211 q 188 43 165 125 q 279 217 246 108 q 324 414 290 253 q 383 606 350 536 q 399 668 394 628 q 258 799 325 701 q 154 967 207 883 q 150 1015 138 993 q 174 1029 158 1029 q 226 1008 181 1029 q 271 963 250 997 q 301 903 286 932 q 418 756 315 875 q 471 788 433 788 q 539 757 518 788 z "}}}
